<mxfile host="app.diagrams.net" modified="2021-01-09T20:30:38.124Z" agent="5.0 (X11)" etag="Wbgw0Hf5yxQhxVRHbJwt" version="14.1.8" type="github">
  <diagram id="XLJz4XHuQtwQGgm-iwJP" name="Page-1">
    <mxGraphModel dx="494" dy="1316" grid="1" gridSize="10" guides="1" tooltips="1" connect="1" arrows="1" fold="1" page="1" pageScale="1" pageWidth="850" pageHeight="1100" math="0" shadow="0">
      <root>
        <mxCell id="0" />
        <mxCell id="1" parent="0" />
        <mxCell id="BloUKUvgyLTRw8BuOScH-1" value="" style="ellipse;whiteSpace=wrap;html=1;aspect=fixed;fillColor=#ffe6cc;strokeColor=#d79b00;" vertex="1" parent="1">
          <mxGeometry x="390" y="200" width="80" height="80" as="geometry" />
        </mxCell>
        <mxCell id="BloUKUvgyLTRw8BuOScH-2" value="" style="endArrow=none;html=1;exitX=0;exitY=0.5;exitDx=0;exitDy=0;entryX=1;entryY=0.5;entryDx=0;entryDy=0;" edge="1" source="BloUKUvgyLTRw8BuOScH-1" target="BloUKUvgyLTRw8BuOScH-1" parent="1">
          <mxGeometry width="50" height="50" relative="1" as="geometry">
            <mxPoint x="650" y="360" as="sourcePoint" />
            <mxPoint x="700" y="310" as="targetPoint" />
          </mxGeometry>
        </mxCell>
        <mxCell id="BloUKUvgyLTRw8BuOScH-3" value="" style="endArrow=none;html=1;exitX=0.5;exitY=1;exitDx=0;exitDy=0;" edge="1" source="BloUKUvgyLTRw8BuOScH-1" parent="1">
          <mxGeometry width="50" height="50" relative="1" as="geometry">
            <mxPoint x="360" y="370" as="sourcePoint" />
            <mxPoint x="430" y="240" as="targetPoint" />
          </mxGeometry>
        </mxCell>
        <mxCell id="BloUKUvgyLTRw8BuOScH-4" value="0" style="text;html=1;strokeColor=none;fillColor=none;align=center;verticalAlign=middle;whiteSpace=wrap;rounded=0;" vertex="1" parent="1">
          <mxGeometry x="410" y="210" width="40" height="20" as="geometry" />
        </mxCell>
        <mxCell id="BloUKUvgyLTRw8BuOScH-5" value="0" style="text;html=1;strokeColor=none;fillColor=none;align=center;verticalAlign=middle;whiteSpace=wrap;rounded=0;" vertex="1" parent="1">
          <mxGeometry x="390" y="250" width="40" height="20" as="geometry" />
        </mxCell>
        <mxCell id="BloUKUvgyLTRw8BuOScH-6" value="0" style="text;html=1;strokeColor=none;fillColor=none;align=center;verticalAlign=middle;whiteSpace=wrap;rounded=0;" vertex="1" parent="1">
          <mxGeometry x="430" y="250" width="40" height="20" as="geometry" />
        </mxCell>
        <mxCell id="BloUKUvgyLTRw8BuOScH-8" value="" style="ellipse;whiteSpace=wrap;html=1;aspect=fixed;fillColor=#ffe6cc;strokeColor=#d79b00;" vertex="1" parent="1">
          <mxGeometry x="560" y="200" width="80" height="80" as="geometry" />
        </mxCell>
        <mxCell id="BloUKUvgyLTRw8BuOScH-9" value="" style="endArrow=none;html=1;exitX=0;exitY=0.5;exitDx=0;exitDy=0;entryX=1;entryY=0.5;entryDx=0;entryDy=0;" edge="1" source="BloUKUvgyLTRw8BuOScH-8" target="BloUKUvgyLTRw8BuOScH-8" parent="1">
          <mxGeometry width="50" height="50" relative="1" as="geometry">
            <mxPoint x="820" y="360" as="sourcePoint" />
            <mxPoint x="870" y="310" as="targetPoint" />
          </mxGeometry>
        </mxCell>
        <mxCell id="BloUKUvgyLTRw8BuOScH-10" value="" style="endArrow=none;html=1;exitX=0.5;exitY=1;exitDx=0;exitDy=0;" edge="1" source="BloUKUvgyLTRw8BuOScH-8" parent="1">
          <mxGeometry width="50" height="50" relative="1" as="geometry">
            <mxPoint x="530" y="370" as="sourcePoint" />
            <mxPoint x="600" y="240" as="targetPoint" />
          </mxGeometry>
        </mxCell>
        <mxCell id="BloUKUvgyLTRw8BuOScH-11" value="1" style="text;html=1;strokeColor=none;fillColor=none;align=center;verticalAlign=middle;whiteSpace=wrap;rounded=0;" vertex="1" parent="1">
          <mxGeometry x="580" y="210" width="40" height="20" as="geometry" />
        </mxCell>
        <mxCell id="BloUKUvgyLTRw8BuOScH-12" value="3" style="text;html=1;strokeColor=none;fillColor=none;align=center;verticalAlign=middle;whiteSpace=wrap;rounded=0;" vertex="1" parent="1">
          <mxGeometry x="560" y="250" width="40" height="20" as="geometry" />
        </mxCell>
        <mxCell id="BloUKUvgyLTRw8BuOScH-13" value="3" style="text;html=1;strokeColor=none;fillColor=none;align=center;verticalAlign=middle;whiteSpace=wrap;rounded=0;" vertex="1" parent="1">
          <mxGeometry x="600" y="250" width="30" height="20" as="geometry" />
        </mxCell>
        <mxCell id="BloUKUvgyLTRw8BuOScH-15" value="" style="ellipse;whiteSpace=wrap;html=1;aspect=fixed;fillColor=#ffe6cc;strokeColor=#d79b00;" vertex="1" parent="1">
          <mxGeometry x="680" y="45" width="80" height="80" as="geometry" />
        </mxCell>
        <mxCell id="BloUKUvgyLTRw8BuOScH-16" value="" style="endArrow=none;html=1;exitX=0;exitY=0.5;exitDx=0;exitDy=0;entryX=1;entryY=0.5;entryDx=0;entryDy=0;" edge="1" source="BloUKUvgyLTRw8BuOScH-15" target="BloUKUvgyLTRw8BuOScH-15" parent="1">
          <mxGeometry width="50" height="50" relative="1" as="geometry">
            <mxPoint x="940" y="205" as="sourcePoint" />
            <mxPoint x="990" y="155" as="targetPoint" />
          </mxGeometry>
        </mxCell>
        <mxCell id="BloUKUvgyLTRw8BuOScH-17" value="" style="endArrow=none;html=1;exitX=0.5;exitY=1;exitDx=0;exitDy=0;" edge="1" source="BloUKUvgyLTRw8BuOScH-15" parent="1">
          <mxGeometry width="50" height="50" relative="1" as="geometry">
            <mxPoint x="650" y="215" as="sourcePoint" />
            <mxPoint x="720" y="85" as="targetPoint" />
          </mxGeometry>
        </mxCell>
        <mxCell id="BloUKUvgyLTRw8BuOScH-18" value="2" style="text;html=1;strokeColor=none;fillColor=none;align=center;verticalAlign=middle;whiteSpace=wrap;rounded=0;" vertex="1" parent="1">
          <mxGeometry x="700" y="55" width="40" height="20" as="geometry" />
        </mxCell>
        <mxCell id="BloUKUvgyLTRw8BuOScH-19" value="6" style="text;html=1;strokeColor=none;fillColor=none;align=center;verticalAlign=middle;whiteSpace=wrap;rounded=0;" vertex="1" parent="1">
          <mxGeometry x="680" y="95" width="40" height="20" as="geometry" />
        </mxCell>
        <mxCell id="BloUKUvgyLTRw8BuOScH-20" value="6" style="text;html=1;strokeColor=none;fillColor=none;align=center;verticalAlign=middle;whiteSpace=wrap;rounded=0;" vertex="1" parent="1">
          <mxGeometry x="720" y="95" width="40" height="20" as="geometry" />
        </mxCell>
        <mxCell id="BloUKUvgyLTRw8BuOScH-21" value="" style="ellipse;whiteSpace=wrap;html=1;aspect=fixed;" vertex="1" parent="1">
          <mxGeometry x="760" y="160" width="80" height="80" as="geometry" />
        </mxCell>
        <mxCell id="BloUKUvgyLTRw8BuOScH-22" value="" style="endArrow=none;html=1;exitX=0;exitY=0.5;exitDx=0;exitDy=0;entryX=1;entryY=0.5;entryDx=0;entryDy=0;" edge="1" source="BloUKUvgyLTRw8BuOScH-21" target="BloUKUvgyLTRw8BuOScH-21" parent="1">
          <mxGeometry width="50" height="50" relative="1" as="geometry">
            <mxPoint x="1020" y="320" as="sourcePoint" />
            <mxPoint x="1070" y="270" as="targetPoint" />
          </mxGeometry>
        </mxCell>
        <mxCell id="BloUKUvgyLTRw8BuOScH-23" value="" style="endArrow=none;html=1;exitX=0.5;exitY=1;exitDx=0;exitDy=0;" edge="1" source="BloUKUvgyLTRw8BuOScH-21" parent="1">
          <mxGeometry width="50" height="50" relative="1" as="geometry">
            <mxPoint x="730" y="330" as="sourcePoint" />
            <mxPoint x="800" y="200" as="targetPoint" />
          </mxGeometry>
        </mxCell>
        <mxCell id="BloUKUvgyLTRw8BuOScH-24" value="5" style="text;html=1;strokeColor=none;fillColor=none;align=center;verticalAlign=middle;whiteSpace=wrap;rounded=0;" vertex="1" parent="1">
          <mxGeometry x="780" y="170" width="40" height="20" as="geometry" />
        </mxCell>
        <mxCell id="BloUKUvgyLTRw8BuOScH-25" value="13.5" style="text;html=1;strokeColor=none;fillColor=none;align=center;verticalAlign=middle;whiteSpace=wrap;rounded=0;" vertex="1" parent="1">
          <mxGeometry x="760" y="210" width="40" height="20" as="geometry" />
        </mxCell>
        <mxCell id="BloUKUvgyLTRw8BuOScH-26" value="14.5" style="text;html=1;strokeColor=none;fillColor=none;align=center;verticalAlign=middle;whiteSpace=wrap;rounded=0;" vertex="1" parent="1">
          <mxGeometry x="800" y="210" width="40" height="20" as="geometry" />
        </mxCell>
        <mxCell id="BloUKUvgyLTRw8BuOScH-27" value="" style="ellipse;whiteSpace=wrap;html=1;aspect=fixed;fillColor=#ffe6cc;strokeColor=#d79b00;" vertex="1" parent="1">
          <mxGeometry x="680" y="335" width="80" height="80" as="geometry" />
        </mxCell>
        <mxCell id="BloUKUvgyLTRw8BuOScH-28" value="" style="endArrow=none;html=1;exitX=0;exitY=0.5;exitDx=0;exitDy=0;entryX=1;entryY=0.5;entryDx=0;entryDy=0;" edge="1" source="BloUKUvgyLTRw8BuOScH-27" target="BloUKUvgyLTRw8BuOScH-27" parent="1">
          <mxGeometry width="50" height="50" relative="1" as="geometry">
            <mxPoint x="940" y="495" as="sourcePoint" />
            <mxPoint x="990" y="445" as="targetPoint" />
          </mxGeometry>
        </mxCell>
        <mxCell id="BloUKUvgyLTRw8BuOScH-29" value="" style="endArrow=none;html=1;exitX=0.5;exitY=1;exitDx=0;exitDy=0;" edge="1" source="BloUKUvgyLTRw8BuOScH-27" parent="1">
          <mxGeometry width="50" height="50" relative="1" as="geometry">
            <mxPoint x="650" y="505" as="sourcePoint" />
            <mxPoint x="720" y="375" as="targetPoint" />
          </mxGeometry>
        </mxCell>
        <mxCell id="BloUKUvgyLTRw8BuOScH-30" value="10" style="text;html=1;strokeColor=none;fillColor=none;align=center;verticalAlign=middle;whiteSpace=wrap;rounded=0;" vertex="1" parent="1">
          <mxGeometry x="700" y="345" width="40" height="20" as="geometry" />
        </mxCell>
        <mxCell id="BloUKUvgyLTRw8BuOScH-31" value="7.5" style="text;html=1;strokeColor=none;fillColor=none;align=center;verticalAlign=middle;whiteSpace=wrap;rounded=0;" vertex="1" parent="1">
          <mxGeometry x="680" y="385" width="40" height="20" as="geometry" />
        </mxCell>
        <mxCell id="BloUKUvgyLTRw8BuOScH-32" value="7.5" style="text;html=1;strokeColor=none;fillColor=none;align=center;verticalAlign=middle;whiteSpace=wrap;rounded=0;" vertex="1" parent="1">
          <mxGeometry x="720" y="385" width="40" height="20" as="geometry" />
        </mxCell>
        <mxCell id="BloUKUvgyLTRw8BuOScH-33" value="" style="ellipse;whiteSpace=wrap;html=1;aspect=fixed;" vertex="1" parent="1">
          <mxGeometry x="870" width="80" height="80" as="geometry" />
        </mxCell>
        <mxCell id="BloUKUvgyLTRw8BuOScH-34" value="" style="endArrow=none;html=1;exitX=0;exitY=0.5;exitDx=0;exitDy=0;entryX=1;entryY=0.5;entryDx=0;entryDy=0;" edge="1" source="BloUKUvgyLTRw8BuOScH-33" target="BloUKUvgyLTRw8BuOScH-33" parent="1">
          <mxGeometry width="50" height="50" relative="1" as="geometry">
            <mxPoint x="1130" y="160" as="sourcePoint" />
            <mxPoint x="1180" y="110" as="targetPoint" />
          </mxGeometry>
        </mxCell>
        <mxCell id="BloUKUvgyLTRw8BuOScH-35" value="" style="endArrow=none;html=1;exitX=0.5;exitY=1;exitDx=0;exitDy=0;" edge="1" source="BloUKUvgyLTRw8BuOScH-33" parent="1">
          <mxGeometry width="50" height="50" relative="1" as="geometry">
            <mxPoint x="840" y="170" as="sourcePoint" />
            <mxPoint x="910" y="40" as="targetPoint" />
          </mxGeometry>
        </mxCell>
        <mxCell id="BloUKUvgyLTRw8BuOScH-36" value="3" style="text;html=1;strokeColor=none;fillColor=none;align=center;verticalAlign=middle;whiteSpace=wrap;rounded=0;" vertex="1" parent="1">
          <mxGeometry x="890" y="10" width="40" height="20" as="geometry" />
        </mxCell>
        <mxCell id="BloUKUvgyLTRw8BuOScH-37" value="7.5" style="text;html=1;strokeColor=none;fillColor=none;align=center;verticalAlign=middle;whiteSpace=wrap;rounded=0;" vertex="1" parent="1">
          <mxGeometry x="870" y="50" width="40" height="20" as="geometry" />
        </mxCell>
        <mxCell id="BloUKUvgyLTRw8BuOScH-38" value="8.5" style="text;html=1;strokeColor=none;fillColor=none;align=center;verticalAlign=middle;whiteSpace=wrap;rounded=0;" vertex="1" parent="1">
          <mxGeometry x="910" y="50" width="40" height="20" as="geometry" />
        </mxCell>
        <mxCell id="BloUKUvgyLTRw8BuOScH-39" value="" style="ellipse;whiteSpace=wrap;html=1;aspect=fixed;" vertex="1" parent="1">
          <mxGeometry x="1040" width="80" height="80" as="geometry" />
        </mxCell>
        <mxCell id="BloUKUvgyLTRw8BuOScH-40" value="" style="endArrow=none;html=1;exitX=0;exitY=0.5;exitDx=0;exitDy=0;entryX=1;entryY=0.5;entryDx=0;entryDy=0;" edge="1" source="BloUKUvgyLTRw8BuOScH-39" target="BloUKUvgyLTRw8BuOScH-39" parent="1">
          <mxGeometry width="50" height="50" relative="1" as="geometry">
            <mxPoint x="1300" y="160" as="sourcePoint" />
            <mxPoint x="1350" y="110" as="targetPoint" />
          </mxGeometry>
        </mxCell>
        <mxCell id="BloUKUvgyLTRw8BuOScH-41" value="" style="endArrow=none;html=1;exitX=0.5;exitY=1;exitDx=0;exitDy=0;" edge="1" source="BloUKUvgyLTRw8BuOScH-39" parent="1">
          <mxGeometry width="50" height="50" relative="1" as="geometry">
            <mxPoint x="1010" y="170" as="sourcePoint" />
            <mxPoint x="1080" y="40" as="targetPoint" />
          </mxGeometry>
        </mxCell>
        <mxCell id="BloUKUvgyLTRw8BuOScH-42" value="4" style="text;html=1;strokeColor=none;fillColor=none;align=center;verticalAlign=middle;whiteSpace=wrap;rounded=0;" vertex="1" parent="1">
          <mxGeometry x="1060" y="10" width="40" height="20" as="geometry" />
        </mxCell>
        <mxCell id="BloUKUvgyLTRw8BuOScH-43" value="9.5" style="text;html=1;strokeColor=none;fillColor=none;align=center;verticalAlign=middle;whiteSpace=wrap;rounded=0;" vertex="1" parent="1">
          <mxGeometry x="1040" y="50" width="40" height="20" as="geometry" />
        </mxCell>
        <mxCell id="BloUKUvgyLTRw8BuOScH-44" value="10.5" style="text;html=1;strokeColor=none;fillColor=none;align=center;verticalAlign=middle;whiteSpace=wrap;rounded=0;" vertex="1" parent="1">
          <mxGeometry x="1080" y="50" width="40" height="20" as="geometry" />
        </mxCell>
        <mxCell id="BloUKUvgyLTRw8BuOScH-45" value="" style="ellipse;whiteSpace=wrap;html=1;aspect=fixed;" vertex="1" parent="1">
          <mxGeometry x="870" y="250" width="80" height="80" as="geometry" />
        </mxCell>
        <mxCell id="BloUKUvgyLTRw8BuOScH-46" value="" style="endArrow=none;html=1;exitX=0;exitY=0.5;exitDx=0;exitDy=0;entryX=1;entryY=0.5;entryDx=0;entryDy=0;" edge="1" source="BloUKUvgyLTRw8BuOScH-45" target="BloUKUvgyLTRw8BuOScH-45" parent="1">
          <mxGeometry width="50" height="50" relative="1" as="geometry">
            <mxPoint x="1130" y="410" as="sourcePoint" />
            <mxPoint x="1180" y="360" as="targetPoint" />
          </mxGeometry>
        </mxCell>
        <mxCell id="BloUKUvgyLTRw8BuOScH-47" value="" style="endArrow=none;html=1;exitX=0.5;exitY=1;exitDx=0;exitDy=0;" edge="1" source="BloUKUvgyLTRw8BuOScH-45" parent="1">
          <mxGeometry width="50" height="50" relative="1" as="geometry">
            <mxPoint x="840" y="420" as="sourcePoint" />
            <mxPoint x="910" y="290" as="targetPoint" />
          </mxGeometry>
        </mxCell>
        <mxCell id="BloUKUvgyLTRw8BuOScH-48" value="6" style="text;html=1;strokeColor=none;fillColor=none;align=center;verticalAlign=middle;whiteSpace=wrap;rounded=0;" vertex="1" parent="1">
          <mxGeometry x="890" y="260" width="40" height="20" as="geometry" />
        </mxCell>
        <mxCell id="BloUKUvgyLTRw8BuOScH-49" value="11.5" style="text;html=1;strokeColor=none;fillColor=none;align=center;verticalAlign=middle;whiteSpace=wrap;rounded=0;" vertex="1" parent="1">
          <mxGeometry x="870" y="300" width="40" height="20" as="geometry" />
        </mxCell>
        <mxCell id="BloUKUvgyLTRw8BuOScH-50" value="14.5" style="text;html=1;strokeColor=none;fillColor=none;align=center;verticalAlign=middle;whiteSpace=wrap;rounded=0;" vertex="1" parent="1">
          <mxGeometry x="910" y="300" width="40" height="20" as="geometry" />
        </mxCell>
        <mxCell id="BloUKUvgyLTRw8BuOScH-51" value="" style="ellipse;whiteSpace=wrap;html=1;aspect=fixed;" vertex="1" parent="1">
          <mxGeometry x="1050" y="160" width="80" height="80" as="geometry" />
        </mxCell>
        <mxCell id="BloUKUvgyLTRw8BuOScH-52" value="" style="endArrow=none;html=1;exitX=0;exitY=0.5;exitDx=0;exitDy=0;entryX=1;entryY=0.5;entryDx=0;entryDy=0;" edge="1" source="BloUKUvgyLTRw8BuOScH-51" target="BloUKUvgyLTRw8BuOScH-51" parent="1">
          <mxGeometry width="50" height="50" relative="1" as="geometry">
            <mxPoint x="1310" y="320" as="sourcePoint" />
            <mxPoint x="1360" y="270" as="targetPoint" />
          </mxGeometry>
        </mxCell>
        <mxCell id="BloUKUvgyLTRw8BuOScH-53" value="" style="endArrow=none;html=1;exitX=0.5;exitY=1;exitDx=0;exitDy=0;" edge="1" source="BloUKUvgyLTRw8BuOScH-51" parent="1">
          <mxGeometry width="50" height="50" relative="1" as="geometry">
            <mxPoint x="1020" y="330" as="sourcePoint" />
            <mxPoint x="1090" y="200" as="targetPoint" />
          </mxGeometry>
        </mxCell>
        <mxCell id="BloUKUvgyLTRw8BuOScH-54" value="7" style="text;html=1;strokeColor=none;fillColor=none;align=center;verticalAlign=middle;whiteSpace=wrap;rounded=0;" vertex="1" parent="1">
          <mxGeometry x="1070" y="170" width="40" height="20" as="geometry" />
        </mxCell>
        <mxCell id="BloUKUvgyLTRw8BuOScH-55" value="16.5" style="text;html=1;strokeColor=none;fillColor=none;align=center;verticalAlign=middle;whiteSpace=wrap;rounded=0;" vertex="1" parent="1">
          <mxGeometry x="1050" y="210" width="40" height="20" as="geometry" />
        </mxCell>
        <mxCell id="BloUKUvgyLTRw8BuOScH-56" value="17.5" style="text;html=1;strokeColor=none;fillColor=none;align=center;verticalAlign=middle;whiteSpace=wrap;rounded=0;" vertex="1" parent="1">
          <mxGeometry x="1090" y="210" width="40" height="20" as="geometry" />
        </mxCell>
        <mxCell id="BloUKUvgyLTRw8BuOScH-57" value="" style="ellipse;whiteSpace=wrap;html=1;aspect=fixed;" vertex="1" parent="1">
          <mxGeometry x="1050" y="250" width="80" height="80" as="geometry" />
        </mxCell>
        <mxCell id="BloUKUvgyLTRw8BuOScH-58" value="" style="endArrow=none;html=1;exitX=0;exitY=0.5;exitDx=0;exitDy=0;entryX=1;entryY=0.5;entryDx=0;entryDy=0;" edge="1" source="BloUKUvgyLTRw8BuOScH-57" target="BloUKUvgyLTRw8BuOScH-57" parent="1">
          <mxGeometry width="50" height="50" relative="1" as="geometry">
            <mxPoint x="1310" y="410" as="sourcePoint" />
            <mxPoint x="1360" y="360" as="targetPoint" />
          </mxGeometry>
        </mxCell>
        <mxCell id="BloUKUvgyLTRw8BuOScH-59" value="" style="endArrow=none;html=1;exitX=0.5;exitY=1;exitDx=0;exitDy=0;" edge="1" source="BloUKUvgyLTRw8BuOScH-57" parent="1">
          <mxGeometry width="50" height="50" relative="1" as="geometry">
            <mxPoint x="1020" y="420" as="sourcePoint" />
            <mxPoint x="1090" y="290" as="targetPoint" />
          </mxGeometry>
        </mxCell>
        <mxCell id="BloUKUvgyLTRw8BuOScH-60" value="8" style="text;html=1;strokeColor=none;fillColor=none;align=center;verticalAlign=middle;whiteSpace=wrap;rounded=0;" vertex="1" parent="1">
          <mxGeometry x="1070" y="260" width="40" height="20" as="geometry" />
        </mxCell>
        <mxCell id="BloUKUvgyLTRw8BuOScH-61" value="14.5" style="text;html=1;strokeColor=none;fillColor=none;align=center;verticalAlign=middle;whiteSpace=wrap;rounded=0;" vertex="1" parent="1">
          <mxGeometry x="1050" y="300" width="40" height="20" as="geometry" />
        </mxCell>
        <mxCell id="BloUKUvgyLTRw8BuOScH-62" value="17.5" style="text;html=1;strokeColor=none;fillColor=none;align=center;verticalAlign=middle;whiteSpace=wrap;rounded=0;" vertex="1" parent="1">
          <mxGeometry x="1090" y="300" width="40" height="20" as="geometry" />
        </mxCell>
        <mxCell id="BloUKUvgyLTRw8BuOScH-63" value="" style="ellipse;whiteSpace=wrap;html=1;aspect=fixed;" vertex="1" parent="1">
          <mxGeometry x="1200" y="210" width="80" height="80" as="geometry" />
        </mxCell>
        <mxCell id="BloUKUvgyLTRw8BuOScH-64" value="" style="endArrow=none;html=1;exitX=0;exitY=0.5;exitDx=0;exitDy=0;entryX=1;entryY=0.5;entryDx=0;entryDy=0;" edge="1" source="BloUKUvgyLTRw8BuOScH-63" target="BloUKUvgyLTRw8BuOScH-63" parent="1">
          <mxGeometry width="50" height="50" relative="1" as="geometry">
            <mxPoint x="1460" y="370" as="sourcePoint" />
            <mxPoint x="1510" y="320" as="targetPoint" />
          </mxGeometry>
        </mxCell>
        <mxCell id="BloUKUvgyLTRw8BuOScH-65" value="" style="endArrow=none;html=1;exitX=0.5;exitY=1;exitDx=0;exitDy=0;" edge="1" source="BloUKUvgyLTRw8BuOScH-63" parent="1">
          <mxGeometry width="50" height="50" relative="1" as="geometry">
            <mxPoint x="1170" y="380" as="sourcePoint" />
            <mxPoint x="1240" y="250" as="targetPoint" />
          </mxGeometry>
        </mxCell>
        <mxCell id="BloUKUvgyLTRw8BuOScH-66" value="9" style="text;html=1;strokeColor=none;fillColor=none;align=center;verticalAlign=middle;whiteSpace=wrap;rounded=0;" vertex="1" parent="1">
          <mxGeometry x="1220" y="220" width="40" height="20" as="geometry" />
        </mxCell>
        <mxCell id="BloUKUvgyLTRw8BuOScH-67" value="18.5" style="text;html=1;strokeColor=none;fillColor=none;align=center;verticalAlign=middle;whiteSpace=wrap;rounded=0;" vertex="1" parent="1">
          <mxGeometry x="1200" y="260" width="40" height="20" as="geometry" />
        </mxCell>
        <mxCell id="BloUKUvgyLTRw8BuOScH-68" value="21.5" style="text;html=1;strokeColor=none;fillColor=none;align=center;verticalAlign=middle;whiteSpace=wrap;rounded=0;" vertex="1" parent="1">
          <mxGeometry x="1240" y="260" width="40" height="20" as="geometry" />
        </mxCell>
        <mxCell id="BloUKUvgyLTRw8BuOScH-69" value="" style="ellipse;whiteSpace=wrap;html=1;aspect=fixed;" vertex="1" parent="1">
          <mxGeometry x="810" y="415" width="80" height="80" as="geometry" />
        </mxCell>
        <mxCell id="BloUKUvgyLTRw8BuOScH-70" value="" style="endArrow=none;html=1;exitX=0;exitY=0.5;exitDx=0;exitDy=0;entryX=1;entryY=0.5;entryDx=0;entryDy=0;" edge="1" source="BloUKUvgyLTRw8BuOScH-69" target="BloUKUvgyLTRw8BuOScH-69" parent="1">
          <mxGeometry width="50" height="50" relative="1" as="geometry">
            <mxPoint x="1070" y="575" as="sourcePoint" />
            <mxPoint x="1120" y="525" as="targetPoint" />
          </mxGeometry>
        </mxCell>
        <mxCell id="BloUKUvgyLTRw8BuOScH-71" value="" style="endArrow=none;html=1;exitX=0.5;exitY=1;exitDx=0;exitDy=0;" edge="1" source="BloUKUvgyLTRw8BuOScH-69" parent="1">
          <mxGeometry width="50" height="50" relative="1" as="geometry">
            <mxPoint x="780" y="585" as="sourcePoint" />
            <mxPoint x="850" y="455" as="targetPoint" />
          </mxGeometry>
        </mxCell>
        <mxCell id="BloUKUvgyLTRw8BuOScH-72" value="11" style="text;html=1;strokeColor=none;fillColor=none;align=center;verticalAlign=middle;whiteSpace=wrap;rounded=0;" vertex="1" parent="1">
          <mxGeometry x="830" y="425" width="40" height="20" as="geometry" />
        </mxCell>
        <mxCell id="BloUKUvgyLTRw8BuOScH-73" value="9.5" style="text;html=1;strokeColor=none;fillColor=none;align=center;verticalAlign=middle;whiteSpace=wrap;rounded=0;" vertex="1" parent="1">
          <mxGeometry x="810" y="465" width="40" height="20" as="geometry" />
        </mxCell>
        <mxCell id="BloUKUvgyLTRw8BuOScH-74" value="10" style="text;html=1;strokeColor=none;fillColor=none;align=center;verticalAlign=middle;whiteSpace=wrap;rounded=0;" vertex="1" parent="1">
          <mxGeometry x="850" y="465" width="40" height="20" as="geometry" />
        </mxCell>
        <mxCell id="BloUKUvgyLTRw8BuOScH-75" value="" style="ellipse;whiteSpace=wrap;html=1;aspect=fixed;" vertex="1" parent="1">
          <mxGeometry x="810" y="535" width="80" height="80" as="geometry" />
        </mxCell>
        <mxCell id="BloUKUvgyLTRw8BuOScH-76" value="" style="endArrow=none;html=1;exitX=0;exitY=0.5;exitDx=0;exitDy=0;entryX=1;entryY=0.5;entryDx=0;entryDy=0;" edge="1" source="BloUKUvgyLTRw8BuOScH-75" target="BloUKUvgyLTRw8BuOScH-75" parent="1">
          <mxGeometry width="50" height="50" relative="1" as="geometry">
            <mxPoint x="1070" y="695" as="sourcePoint" />
            <mxPoint x="1120" y="645" as="targetPoint" />
          </mxGeometry>
        </mxCell>
        <mxCell id="BloUKUvgyLTRw8BuOScH-77" value="" style="endArrow=none;html=1;exitX=0.5;exitY=1;exitDx=0;exitDy=0;" edge="1" source="BloUKUvgyLTRw8BuOScH-75" parent="1">
          <mxGeometry width="50" height="50" relative="1" as="geometry">
            <mxPoint x="780" y="705" as="sourcePoint" />
            <mxPoint x="850" y="575" as="targetPoint" />
          </mxGeometry>
        </mxCell>
        <mxCell id="BloUKUvgyLTRw8BuOScH-78" value="12" style="text;html=1;strokeColor=none;fillColor=none;align=center;verticalAlign=middle;whiteSpace=wrap;rounded=0;" vertex="1" parent="1">
          <mxGeometry x="830" y="545" width="40" height="20" as="geometry" />
        </mxCell>
        <mxCell id="BloUKUvgyLTRw8BuOScH-79" value="9" style="text;html=1;strokeColor=none;fillColor=none;align=center;verticalAlign=middle;whiteSpace=wrap;rounded=0;" vertex="1" parent="1">
          <mxGeometry x="810" y="585" width="40" height="20" as="geometry" />
        </mxCell>
        <mxCell id="BloUKUvgyLTRw8BuOScH-80" value="10" style="text;html=1;strokeColor=none;fillColor=none;align=center;verticalAlign=middle;whiteSpace=wrap;rounded=0;" vertex="1" parent="1">
          <mxGeometry x="850" y="585" width="40" height="20" as="geometry" />
        </mxCell>
        <mxCell id="BloUKUvgyLTRw8BuOScH-81" value="" style="ellipse;whiteSpace=wrap;html=1;aspect=fixed;fillColor=#ffe6cc;strokeColor=#d79b00;" vertex="1" parent="1">
          <mxGeometry x="810" y="660" width="80" height="80" as="geometry" />
        </mxCell>
        <mxCell id="BloUKUvgyLTRw8BuOScH-82" value="" style="endArrow=none;html=1;exitX=0;exitY=0.5;exitDx=0;exitDy=0;entryX=1;entryY=0.5;entryDx=0;entryDy=0;" edge="1" source="BloUKUvgyLTRw8BuOScH-81" target="BloUKUvgyLTRw8BuOScH-81" parent="1">
          <mxGeometry width="50" height="50" relative="1" as="geometry">
            <mxPoint x="1070" y="820" as="sourcePoint" />
            <mxPoint x="1120" y="770" as="targetPoint" />
          </mxGeometry>
        </mxCell>
        <mxCell id="BloUKUvgyLTRw8BuOScH-83" value="" style="endArrow=none;html=1;exitX=0.5;exitY=1;exitDx=0;exitDy=0;" edge="1" source="BloUKUvgyLTRw8BuOScH-81" parent="1">
          <mxGeometry width="50" height="50" relative="1" as="geometry">
            <mxPoint x="780" y="830" as="sourcePoint" />
            <mxPoint x="850" y="700" as="targetPoint" />
          </mxGeometry>
        </mxCell>
        <mxCell id="BloUKUvgyLTRw8BuOScH-84" value="13" style="text;html=1;strokeColor=none;fillColor=none;align=center;verticalAlign=middle;whiteSpace=wrap;rounded=0;" vertex="1" parent="1">
          <mxGeometry x="830" y="670" width="40" height="20" as="geometry" />
        </mxCell>
        <mxCell id="BloUKUvgyLTRw8BuOScH-85" value="10" style="text;html=1;strokeColor=none;fillColor=none;align=center;verticalAlign=middle;whiteSpace=wrap;rounded=0;" vertex="1" parent="1">
          <mxGeometry x="810" y="710" width="40" height="20" as="geometry" />
        </mxCell>
        <mxCell id="BloUKUvgyLTRw8BuOScH-86" value="10" style="text;html=1;strokeColor=none;fillColor=none;align=center;verticalAlign=middle;whiteSpace=wrap;rounded=0;" vertex="1" parent="1">
          <mxGeometry x="850" y="710" width="40" height="20" as="geometry" />
        </mxCell>
        <mxCell id="BloUKUvgyLTRw8BuOScH-87" value="" style="ellipse;whiteSpace=wrap;html=1;aspect=fixed;fillColor=#ffe6cc;strokeColor=#d79b00;" vertex="1" parent="1">
          <mxGeometry x="990" y="465" width="80" height="80" as="geometry" />
        </mxCell>
        <mxCell id="BloUKUvgyLTRw8BuOScH-88" value="" style="endArrow=none;html=1;exitX=0;exitY=0.5;exitDx=0;exitDy=0;entryX=1;entryY=0.5;entryDx=0;entryDy=0;" edge="1" source="BloUKUvgyLTRw8BuOScH-87" target="BloUKUvgyLTRw8BuOScH-87" parent="1">
          <mxGeometry width="50" height="50" relative="1" as="geometry">
            <mxPoint x="1250" y="625" as="sourcePoint" />
            <mxPoint x="1300" y="575" as="targetPoint" />
          </mxGeometry>
        </mxCell>
        <mxCell id="BloUKUvgyLTRw8BuOScH-89" value="" style="endArrow=none;html=1;exitX=0.5;exitY=1;exitDx=0;exitDy=0;" edge="1" source="BloUKUvgyLTRw8BuOScH-87" parent="1">
          <mxGeometry width="50" height="50" relative="1" as="geometry">
            <mxPoint x="960" y="635" as="sourcePoint" />
            <mxPoint x="1030" y="505" as="targetPoint" />
          </mxGeometry>
        </mxCell>
        <mxCell id="BloUKUvgyLTRw8BuOScH-90" value="14" style="text;html=1;strokeColor=none;fillColor=none;align=center;verticalAlign=middle;whiteSpace=wrap;rounded=0;" vertex="1" parent="1">
          <mxGeometry x="1010" y="475" width="40" height="20" as="geometry" />
        </mxCell>
        <mxCell id="BloUKUvgyLTRw8BuOScH-91" value="14" style="text;html=1;strokeColor=none;fillColor=none;align=center;verticalAlign=middle;whiteSpace=wrap;rounded=0;" vertex="1" parent="1">
          <mxGeometry x="990" y="515" width="40" height="20" as="geometry" />
        </mxCell>
        <mxCell id="BloUKUvgyLTRw8BuOScH-92" value="14" style="text;html=1;strokeColor=none;fillColor=none;align=center;verticalAlign=middle;whiteSpace=wrap;rounded=0;" vertex="1" parent="1">
          <mxGeometry x="1030" y="515" width="40" height="20" as="geometry" />
        </mxCell>
        <mxCell id="BloUKUvgyLTRw8BuOScH-93" value="" style="ellipse;whiteSpace=wrap;html=1;aspect=fixed;fillColor=#ffe6cc;strokeColor=#d79b00;" vertex="1" parent="1">
          <mxGeometry x="990" y="645" width="80" height="80" as="geometry" />
        </mxCell>
        <mxCell id="BloUKUvgyLTRw8BuOScH-94" value="" style="endArrow=none;html=1;exitX=0;exitY=0.5;exitDx=0;exitDy=0;entryX=1;entryY=0.5;entryDx=0;entryDy=0;" edge="1" source="BloUKUvgyLTRw8BuOScH-93" target="BloUKUvgyLTRw8BuOScH-93" parent="1">
          <mxGeometry width="50" height="50" relative="1" as="geometry">
            <mxPoint x="1250" y="805" as="sourcePoint" />
            <mxPoint x="1300" y="755" as="targetPoint" />
          </mxGeometry>
        </mxCell>
        <mxCell id="BloUKUvgyLTRw8BuOScH-95" value="" style="endArrow=none;html=1;exitX=0.5;exitY=1;exitDx=0;exitDy=0;" edge="1" source="BloUKUvgyLTRw8BuOScH-93" parent="1">
          <mxGeometry width="50" height="50" relative="1" as="geometry">
            <mxPoint x="960" y="815" as="sourcePoint" />
            <mxPoint x="1030" y="685" as="targetPoint" />
          </mxGeometry>
        </mxCell>
        <mxCell id="BloUKUvgyLTRw8BuOScH-96" value="15" style="text;html=1;strokeColor=none;fillColor=none;align=center;verticalAlign=middle;whiteSpace=wrap;rounded=0;" vertex="1" parent="1">
          <mxGeometry x="1010" y="655" width="40" height="20" as="geometry" />
        </mxCell>
        <mxCell id="BloUKUvgyLTRw8BuOScH-97" value="14" style="text;html=1;strokeColor=none;fillColor=none;align=center;verticalAlign=middle;whiteSpace=wrap;rounded=0;" vertex="1" parent="1">
          <mxGeometry x="990" y="695" width="40" height="20" as="geometry" />
        </mxCell>
        <mxCell id="BloUKUvgyLTRw8BuOScH-98" value="14" style="text;html=1;strokeColor=none;fillColor=none;align=center;verticalAlign=middle;whiteSpace=wrap;rounded=0;" vertex="1" parent="1">
          <mxGeometry x="1030" y="695" width="40" height="20" as="geometry" />
        </mxCell>
        <mxCell id="BloUKUvgyLTRw8BuOScH-99" value="" style="ellipse;whiteSpace=wrap;html=1;aspect=fixed;fillColor=#ffe6cc;strokeColor=#d79b00;" vertex="1" parent="1">
          <mxGeometry x="1130" y="520" width="80" height="80" as="geometry" />
        </mxCell>
        <mxCell id="BloUKUvgyLTRw8BuOScH-100" value="" style="endArrow=none;html=1;exitX=0;exitY=0.5;exitDx=0;exitDy=0;entryX=1;entryY=0.5;entryDx=0;entryDy=0;" edge="1" source="BloUKUvgyLTRw8BuOScH-99" target="BloUKUvgyLTRw8BuOScH-99" parent="1">
          <mxGeometry width="50" height="50" relative="1" as="geometry">
            <mxPoint x="1390" y="680" as="sourcePoint" />
            <mxPoint x="1440" y="630" as="targetPoint" />
          </mxGeometry>
        </mxCell>
        <mxCell id="BloUKUvgyLTRw8BuOScH-101" value="" style="endArrow=none;html=1;exitX=0.5;exitY=1;exitDx=0;exitDy=0;" edge="1" source="BloUKUvgyLTRw8BuOScH-99" parent="1">
          <mxGeometry width="50" height="50" relative="1" as="geometry">
            <mxPoint x="1100" y="690" as="sourcePoint" />
            <mxPoint x="1170" y="560" as="targetPoint" />
          </mxGeometry>
        </mxCell>
        <mxCell id="BloUKUvgyLTRw8BuOScH-102" value="16" style="text;html=1;strokeColor=none;fillColor=none;align=center;verticalAlign=middle;whiteSpace=wrap;rounded=0;" vertex="1" parent="1">
          <mxGeometry x="1150" y="530" width="40" height="20" as="geometry" />
        </mxCell>
        <mxCell id="BloUKUvgyLTRw8BuOScH-103" value="17" style="text;html=1;strokeColor=none;fillColor=none;align=center;verticalAlign=middle;whiteSpace=wrap;rounded=0;" vertex="1" parent="1">
          <mxGeometry x="1130" y="570" width="40" height="20" as="geometry" />
        </mxCell>
        <mxCell id="BloUKUvgyLTRw8BuOScH-104" value="17" style="text;html=1;strokeColor=none;fillColor=none;align=center;verticalAlign=middle;whiteSpace=wrap;rounded=0;" vertex="1" parent="1">
          <mxGeometry x="1170" y="570" width="40" height="20" as="geometry" />
        </mxCell>
        <mxCell id="BloUKUvgyLTRw8BuOScH-105" value="" style="ellipse;whiteSpace=wrap;html=1;aspect=fixed;fillColor=#ffe6cc;strokeColor=#d79b00;" vertex="1" parent="1">
          <mxGeometry x="1260" y="590" width="80" height="80" as="geometry" />
        </mxCell>
        <mxCell id="BloUKUvgyLTRw8BuOScH-106" value="" style="endArrow=none;html=1;exitX=0;exitY=0.5;exitDx=0;exitDy=0;entryX=1;entryY=0.5;entryDx=0;entryDy=0;" edge="1" source="BloUKUvgyLTRw8BuOScH-105" target="BloUKUvgyLTRw8BuOScH-105" parent="1">
          <mxGeometry width="50" height="50" relative="1" as="geometry">
            <mxPoint x="1520" y="750" as="sourcePoint" />
            <mxPoint x="1570" y="700" as="targetPoint" />
          </mxGeometry>
        </mxCell>
        <mxCell id="BloUKUvgyLTRw8BuOScH-107" value="" style="endArrow=none;html=1;exitX=0.5;exitY=1;exitDx=0;exitDy=0;" edge="1" source="BloUKUvgyLTRw8BuOScH-105" parent="1">
          <mxGeometry width="50" height="50" relative="1" as="geometry">
            <mxPoint x="1230" y="760" as="sourcePoint" />
            <mxPoint x="1300" y="630" as="targetPoint" />
          </mxGeometry>
        </mxCell>
        <mxCell id="BloUKUvgyLTRw8BuOScH-108" value="17" style="text;html=1;strokeColor=none;fillColor=none;align=center;verticalAlign=middle;whiteSpace=wrap;rounded=0;" vertex="1" parent="1">
          <mxGeometry x="1280" y="600" width="40" height="20" as="geometry" />
        </mxCell>
        <mxCell id="BloUKUvgyLTRw8BuOScH-109" value="17" style="text;html=1;strokeColor=none;fillColor=none;align=center;verticalAlign=middle;whiteSpace=wrap;rounded=0;" vertex="1" parent="1">
          <mxGeometry x="1260" y="640" width="40" height="20" as="geometry" />
        </mxCell>
        <mxCell id="BloUKUvgyLTRw8BuOScH-110" value="17" style="text;html=1;strokeColor=none;fillColor=none;align=center;verticalAlign=middle;whiteSpace=wrap;rounded=0;" vertex="1" parent="1">
          <mxGeometry x="1300" y="640" width="40" height="20" as="geometry" />
        </mxCell>
        <mxCell id="BloUKUvgyLTRw8BuOScH-111" value="" style="ellipse;whiteSpace=wrap;html=1;aspect=fixed;fillColor=#ffe6cc;strokeColor=#d79b00;" vertex="1" parent="1">
          <mxGeometry x="1260" y="440" width="80" height="80" as="geometry" />
        </mxCell>
        <mxCell id="BloUKUvgyLTRw8BuOScH-112" value="" style="endArrow=none;html=1;exitX=0;exitY=0.5;exitDx=0;exitDy=0;entryX=1;entryY=0.5;entryDx=0;entryDy=0;" edge="1" source="BloUKUvgyLTRw8BuOScH-111" target="BloUKUvgyLTRw8BuOScH-111" parent="1">
          <mxGeometry width="50" height="50" relative="1" as="geometry">
            <mxPoint x="1520" y="600" as="sourcePoint" />
            <mxPoint x="1570" y="550" as="targetPoint" />
          </mxGeometry>
        </mxCell>
        <mxCell id="BloUKUvgyLTRw8BuOScH-113" value="" style="endArrow=none;html=1;exitX=0.5;exitY=1;exitDx=0;exitDy=0;" edge="1" source="BloUKUvgyLTRw8BuOScH-111" parent="1">
          <mxGeometry width="50" height="50" relative="1" as="geometry">
            <mxPoint x="1230" y="610" as="sourcePoint" />
            <mxPoint x="1300" y="480" as="targetPoint" />
          </mxGeometry>
        </mxCell>
        <mxCell id="BloUKUvgyLTRw8BuOScH-114" value="18" style="text;html=1;strokeColor=none;fillColor=none;align=center;verticalAlign=middle;whiteSpace=wrap;rounded=0;" vertex="1" parent="1">
          <mxGeometry x="1280" y="450" width="40" height="20" as="geometry" />
        </mxCell>
        <mxCell id="BloUKUvgyLTRw8BuOScH-115" value="21.5" style="text;html=1;strokeColor=none;fillColor=none;align=center;verticalAlign=middle;whiteSpace=wrap;rounded=0;" vertex="1" parent="1">
          <mxGeometry x="1260" y="490" width="40" height="20" as="geometry" />
        </mxCell>
        <mxCell id="BloUKUvgyLTRw8BuOScH-116" value="21.5" style="text;html=1;strokeColor=none;fillColor=none;align=center;verticalAlign=middle;whiteSpace=wrap;rounded=0;" vertex="1" parent="1">
          <mxGeometry x="1300" y="490" width="40" height="20" as="geometry" />
        </mxCell>
        <mxCell id="BloUKUvgyLTRw8BuOScH-117" value="" style="ellipse;whiteSpace=wrap;html=1;aspect=fixed;" vertex="1" parent="1">
          <mxGeometry x="1190" y="-100" width="80" height="80" as="geometry" />
        </mxCell>
        <mxCell id="BloUKUvgyLTRw8BuOScH-118" value="" style="endArrow=none;html=1;exitX=0;exitY=0.5;exitDx=0;exitDy=0;entryX=1;entryY=0.5;entryDx=0;entryDy=0;" edge="1" source="BloUKUvgyLTRw8BuOScH-117" target="BloUKUvgyLTRw8BuOScH-117" parent="1">
          <mxGeometry width="50" height="50" relative="1" as="geometry">
            <mxPoint x="1450" y="60" as="sourcePoint" />
            <mxPoint x="1500" y="10" as="targetPoint" />
          </mxGeometry>
        </mxCell>
        <mxCell id="BloUKUvgyLTRw8BuOScH-119" value="" style="endArrow=none;html=1;exitX=0.5;exitY=1;exitDx=0;exitDy=0;" edge="1" source="BloUKUvgyLTRw8BuOScH-117" parent="1">
          <mxGeometry width="50" height="50" relative="1" as="geometry">
            <mxPoint x="1160" y="70" as="sourcePoint" />
            <mxPoint x="1230" y="-60" as="targetPoint" />
          </mxGeometry>
        </mxCell>
        <mxCell id="BloUKUvgyLTRw8BuOScH-120" value="19" style="text;html=1;strokeColor=none;fillColor=none;align=center;verticalAlign=middle;whiteSpace=wrap;rounded=0;" vertex="1" parent="1">
          <mxGeometry x="1210" y="-90" width="40" height="20" as="geometry" />
        </mxCell>
        <mxCell id="BloUKUvgyLTRw8BuOScH-121" value="7.5" style="text;html=1;strokeColor=none;fillColor=none;align=center;verticalAlign=middle;whiteSpace=wrap;rounded=0;" vertex="1" parent="1">
          <mxGeometry x="1190" y="-50" width="40" height="20" as="geometry" />
        </mxCell>
        <mxCell id="BloUKUvgyLTRw8BuOScH-122" value="16.5" style="text;html=1;strokeColor=none;fillColor=none;align=center;verticalAlign=middle;whiteSpace=wrap;rounded=0;" vertex="1" parent="1">
          <mxGeometry x="1230" y="-50" width="40" height="20" as="geometry" />
        </mxCell>
        <mxCell id="BloUKUvgyLTRw8BuOScH-123" value="" style="ellipse;whiteSpace=wrap;html=1;aspect=fixed;" vertex="1" parent="1">
          <mxGeometry x="1380" y="-100" width="80" height="80" as="geometry" />
        </mxCell>
        <mxCell id="BloUKUvgyLTRw8BuOScH-124" value="" style="endArrow=none;html=1;exitX=0;exitY=0.5;exitDx=0;exitDy=0;entryX=1;entryY=0.5;entryDx=0;entryDy=0;" edge="1" source="BloUKUvgyLTRw8BuOScH-123" target="BloUKUvgyLTRw8BuOScH-123" parent="1">
          <mxGeometry width="50" height="50" relative="1" as="geometry">
            <mxPoint x="1640" y="60" as="sourcePoint" />
            <mxPoint x="1690" y="10" as="targetPoint" />
          </mxGeometry>
        </mxCell>
        <mxCell id="BloUKUvgyLTRw8BuOScH-125" value="" style="endArrow=none;html=1;exitX=0.5;exitY=1;exitDx=0;exitDy=0;" edge="1" source="BloUKUvgyLTRw8BuOScH-123" parent="1">
          <mxGeometry width="50" height="50" relative="1" as="geometry">
            <mxPoint x="1350" y="70" as="sourcePoint" />
            <mxPoint x="1420" y="-60" as="targetPoint" />
          </mxGeometry>
        </mxCell>
        <mxCell id="BloUKUvgyLTRw8BuOScH-126" value="20" style="text;html=1;strokeColor=none;fillColor=none;align=center;verticalAlign=middle;whiteSpace=wrap;rounded=0;" vertex="1" parent="1">
          <mxGeometry x="1400" y="-90" width="40" height="20" as="geometry" />
        </mxCell>
        <mxCell id="BloUKUvgyLTRw8BuOScH-127" value="10" style="text;html=1;strokeColor=none;fillColor=none;align=center;verticalAlign=middle;whiteSpace=wrap;rounded=0;" vertex="1" parent="1">
          <mxGeometry x="1380" y="-50" width="40" height="20" as="geometry" />
        </mxCell>
        <mxCell id="BloUKUvgyLTRw8BuOScH-128" value="19" style="text;html=1;strokeColor=none;fillColor=none;align=center;verticalAlign=middle;whiteSpace=wrap;rounded=0;" vertex="1" parent="1">
          <mxGeometry x="1420" y="-50" width="40" height="20" as="geometry" />
        </mxCell>
        <mxCell id="BloUKUvgyLTRw8BuOScH-129" value="" style="ellipse;whiteSpace=wrap;html=1;aspect=fixed;" vertex="1" parent="1">
          <mxGeometry x="1190" y="40" width="80" height="80" as="geometry" />
        </mxCell>
        <mxCell id="BloUKUvgyLTRw8BuOScH-130" value="" style="endArrow=none;html=1;exitX=0;exitY=0.5;exitDx=0;exitDy=0;entryX=1;entryY=0.5;entryDx=0;entryDy=0;" edge="1" source="BloUKUvgyLTRw8BuOScH-129" target="BloUKUvgyLTRw8BuOScH-129" parent="1">
          <mxGeometry width="50" height="50" relative="1" as="geometry">
            <mxPoint x="1450" y="200" as="sourcePoint" />
            <mxPoint x="1500" y="150" as="targetPoint" />
          </mxGeometry>
        </mxCell>
        <mxCell id="BloUKUvgyLTRw8BuOScH-131" value="" style="endArrow=none;html=1;exitX=0.5;exitY=1;exitDx=0;exitDy=0;" edge="1" source="BloUKUvgyLTRw8BuOScH-129" parent="1">
          <mxGeometry width="50" height="50" relative="1" as="geometry">
            <mxPoint x="1160" y="210" as="sourcePoint" />
            <mxPoint x="1230" y="80" as="targetPoint" />
          </mxGeometry>
        </mxCell>
        <mxCell id="BloUKUvgyLTRw8BuOScH-132" value="21" style="text;html=1;strokeColor=none;fillColor=none;align=center;verticalAlign=middle;whiteSpace=wrap;rounded=0;" vertex="1" parent="1">
          <mxGeometry x="1210" y="50" width="40" height="20" as="geometry" />
        </mxCell>
        <mxCell id="BloUKUvgyLTRw8BuOScH-133" value="16.5" style="text;html=1;strokeColor=none;fillColor=none;align=center;verticalAlign=middle;whiteSpace=wrap;rounded=0;" vertex="1" parent="1">
          <mxGeometry x="1190" y="90" width="40" height="20" as="geometry" />
        </mxCell>
        <mxCell id="BloUKUvgyLTRw8BuOScH-134" value="19" style="text;html=1;strokeColor=none;fillColor=none;align=center;verticalAlign=middle;whiteSpace=wrap;rounded=0;" vertex="1" parent="1">
          <mxGeometry x="1230" y="90" width="40" height="20" as="geometry" />
        </mxCell>
        <mxCell id="BloUKUvgyLTRw8BuOScH-135" value="" style="ellipse;whiteSpace=wrap;html=1;aspect=fixed;" vertex="1" parent="1">
          <mxGeometry x="1380" y="40" width="80" height="80" as="geometry" />
        </mxCell>
        <mxCell id="BloUKUvgyLTRw8BuOScH-136" value="" style="endArrow=none;html=1;exitX=0;exitY=0.5;exitDx=0;exitDy=0;entryX=1;entryY=0.5;entryDx=0;entryDy=0;" edge="1" source="BloUKUvgyLTRw8BuOScH-135" target="BloUKUvgyLTRw8BuOScH-135" parent="1">
          <mxGeometry width="50" height="50" relative="1" as="geometry">
            <mxPoint x="1640" y="200" as="sourcePoint" />
            <mxPoint x="1690" y="150" as="targetPoint" />
          </mxGeometry>
        </mxCell>
        <mxCell id="BloUKUvgyLTRw8BuOScH-137" value="" style="endArrow=none;html=1;exitX=0.5;exitY=1;exitDx=0;exitDy=0;" edge="1" source="BloUKUvgyLTRw8BuOScH-135" parent="1">
          <mxGeometry width="50" height="50" relative="1" as="geometry">
            <mxPoint x="1350" y="210" as="sourcePoint" />
            <mxPoint x="1420" y="80" as="targetPoint" />
          </mxGeometry>
        </mxCell>
        <mxCell id="BloUKUvgyLTRw8BuOScH-138" value="22" style="text;html=1;strokeColor=none;fillColor=none;align=center;verticalAlign=middle;whiteSpace=wrap;rounded=0;" vertex="1" parent="1">
          <mxGeometry x="1400" y="50" width="40" height="20" as="geometry" />
        </mxCell>
        <mxCell id="BloUKUvgyLTRw8BuOScH-139" value="18" style="text;html=1;strokeColor=none;fillColor=none;align=center;verticalAlign=middle;whiteSpace=wrap;rounded=0;" vertex="1" parent="1">
          <mxGeometry x="1380" y="90" width="40" height="20" as="geometry" />
        </mxCell>
        <mxCell id="BloUKUvgyLTRw8BuOScH-140" value="19" style="text;html=1;strokeColor=none;fillColor=none;align=center;verticalAlign=middle;whiteSpace=wrap;rounded=0;" vertex="1" parent="1">
          <mxGeometry x="1420" y="90" width="40" height="20" as="geometry" />
        </mxCell>
        <mxCell id="BloUKUvgyLTRw8BuOScH-141" value="" style="ellipse;whiteSpace=wrap;html=1;aspect=fixed;" vertex="1" parent="1">
          <mxGeometry x="1570" y="-10" width="80" height="80" as="geometry" />
        </mxCell>
        <mxCell id="BloUKUvgyLTRw8BuOScH-142" value="" style="endArrow=none;html=1;exitX=0;exitY=0.5;exitDx=0;exitDy=0;entryX=1;entryY=0.5;entryDx=0;entryDy=0;" edge="1" source="BloUKUvgyLTRw8BuOScH-141" target="BloUKUvgyLTRw8BuOScH-141" parent="1">
          <mxGeometry width="50" height="50" relative="1" as="geometry">
            <mxPoint x="1830" y="150" as="sourcePoint" />
            <mxPoint x="1880" y="100" as="targetPoint" />
          </mxGeometry>
        </mxCell>
        <mxCell id="BloUKUvgyLTRw8BuOScH-143" value="" style="endArrow=none;html=1;exitX=0.5;exitY=1;exitDx=0;exitDy=0;" edge="1" source="BloUKUvgyLTRw8BuOScH-141" parent="1">
          <mxGeometry width="50" height="50" relative="1" as="geometry">
            <mxPoint x="1540" y="160" as="sourcePoint" />
            <mxPoint x="1610" y="30" as="targetPoint" />
          </mxGeometry>
        </mxCell>
        <mxCell id="BloUKUvgyLTRw8BuOScH-144" value="23" style="text;html=1;strokeColor=none;fillColor=none;align=center;verticalAlign=middle;whiteSpace=wrap;rounded=0;" vertex="1" parent="1">
          <mxGeometry x="1590" width="40" height="20" as="geometry" />
        </mxCell>
        <mxCell id="BloUKUvgyLTRw8BuOScH-145" value="20.5" style="text;html=1;strokeColor=none;fillColor=none;align=center;verticalAlign=middle;whiteSpace=wrap;rounded=0;" vertex="1" parent="1">
          <mxGeometry x="1570" y="40" width="40" height="20" as="geometry" />
        </mxCell>
        <mxCell id="BloUKUvgyLTRw8BuOScH-146" value="21.5" style="text;html=1;strokeColor=none;fillColor=none;align=center;verticalAlign=middle;whiteSpace=wrap;rounded=0;" vertex="1" parent="1">
          <mxGeometry x="1610" y="40" width="40" height="20" as="geometry" />
        </mxCell>
        <mxCell id="BloUKUvgyLTRw8BuOScH-147" value="" style="ellipse;whiteSpace=wrap;html=1;aspect=fixed;fillColor=#ffe6cc;strokeColor=#d79b00;" vertex="1" parent="1">
          <mxGeometry x="1570" y="130" width="80" height="80" as="geometry" />
        </mxCell>
        <mxCell id="BloUKUvgyLTRw8BuOScH-148" value="" style="endArrow=none;html=1;exitX=0;exitY=0.5;exitDx=0;exitDy=0;entryX=1;entryY=0.5;entryDx=0;entryDy=0;" edge="1" source="BloUKUvgyLTRw8BuOScH-147" target="BloUKUvgyLTRw8BuOScH-147" parent="1">
          <mxGeometry width="50" height="50" relative="1" as="geometry">
            <mxPoint x="1830" y="290" as="sourcePoint" />
            <mxPoint x="1880" y="240" as="targetPoint" />
          </mxGeometry>
        </mxCell>
        <mxCell id="BloUKUvgyLTRw8BuOScH-149" value="" style="endArrow=none;html=1;exitX=0.5;exitY=1;exitDx=0;exitDy=0;" edge="1" source="BloUKUvgyLTRw8BuOScH-147" parent="1">
          <mxGeometry width="50" height="50" relative="1" as="geometry">
            <mxPoint x="1540" y="300" as="sourcePoint" />
            <mxPoint x="1610" y="170" as="targetPoint" />
          </mxGeometry>
        </mxCell>
        <mxCell id="BloUKUvgyLTRw8BuOScH-150" value="24" style="text;html=1;strokeColor=none;fillColor=none;align=center;verticalAlign=middle;whiteSpace=wrap;rounded=0;" vertex="1" parent="1">
          <mxGeometry x="1590" y="140" width="40" height="20" as="geometry" />
        </mxCell>
        <mxCell id="BloUKUvgyLTRw8BuOScH-151" value="23" style="text;html=1;strokeColor=none;fillColor=none;align=center;verticalAlign=middle;whiteSpace=wrap;rounded=0;" vertex="1" parent="1">
          <mxGeometry x="1570" y="180" width="40" height="20" as="geometry" />
        </mxCell>
        <mxCell id="BloUKUvgyLTRw8BuOScH-152" value="23" style="text;html=1;strokeColor=none;fillColor=none;align=center;verticalAlign=middle;whiteSpace=wrap;rounded=0;" vertex="1" parent="1">
          <mxGeometry x="1610" y="180" width="40" height="20" as="geometry" />
        </mxCell>
        <mxCell id="BloUKUvgyLTRw8BuOScH-153" value="" style="ellipse;whiteSpace=wrap;html=1;aspect=fixed;fillColor=#ffe6cc;strokeColor=#d79b00;" vertex="1" parent="1">
          <mxGeometry x="1570" y="260" width="80" height="80" as="geometry" />
        </mxCell>
        <mxCell id="BloUKUvgyLTRw8BuOScH-154" value="" style="endArrow=none;html=1;exitX=0;exitY=0.5;exitDx=0;exitDy=0;entryX=1;entryY=0.5;entryDx=0;entryDy=0;" edge="1" source="BloUKUvgyLTRw8BuOScH-153" target="BloUKUvgyLTRw8BuOScH-153" parent="1">
          <mxGeometry width="50" height="50" relative="1" as="geometry">
            <mxPoint x="1830" y="420" as="sourcePoint" />
            <mxPoint x="1880" y="370" as="targetPoint" />
          </mxGeometry>
        </mxCell>
        <mxCell id="BloUKUvgyLTRw8BuOScH-155" value="" style="endArrow=none;html=1;exitX=0.5;exitY=1;exitDx=0;exitDy=0;" edge="1" source="BloUKUvgyLTRw8BuOScH-153" parent="1">
          <mxGeometry width="50" height="50" relative="1" as="geometry">
            <mxPoint x="1540" y="430" as="sourcePoint" />
            <mxPoint x="1610" y="300" as="targetPoint" />
          </mxGeometry>
        </mxCell>
        <mxCell id="BloUKUvgyLTRw8BuOScH-156" value="25" style="text;html=1;strokeColor=none;fillColor=none;align=center;verticalAlign=middle;whiteSpace=wrap;rounded=0;" vertex="1" parent="1">
          <mxGeometry x="1590" y="270" width="40" height="20" as="geometry" />
        </mxCell>
        <mxCell id="BloUKUvgyLTRw8BuOScH-157" value="26" style="text;html=1;strokeColor=none;fillColor=none;align=center;verticalAlign=middle;whiteSpace=wrap;rounded=0;" vertex="1" parent="1">
          <mxGeometry x="1570" y="310" width="40" height="20" as="geometry" />
        </mxCell>
        <mxCell id="BloUKUvgyLTRw8BuOScH-158" value="26" style="text;html=1;strokeColor=none;fillColor=none;align=center;verticalAlign=middle;whiteSpace=wrap;rounded=0;" vertex="1" parent="1">
          <mxGeometry x="1610" y="310" width="40" height="20" as="geometry" />
        </mxCell>
        <mxCell id="BloUKUvgyLTRw8BuOScH-159" value="" style="ellipse;whiteSpace=wrap;html=1;aspect=fixed;fillColor=#ffe6cc;strokeColor=#d79b00;" vertex="1" parent="1">
          <mxGeometry x="1570" y="390" width="80" height="80" as="geometry" />
        </mxCell>
        <mxCell id="BloUKUvgyLTRw8BuOScH-160" value="" style="endArrow=none;html=1;exitX=0;exitY=0.5;exitDx=0;exitDy=0;entryX=1;entryY=0.5;entryDx=0;entryDy=0;" edge="1" source="BloUKUvgyLTRw8BuOScH-159" target="BloUKUvgyLTRw8BuOScH-159" parent="1">
          <mxGeometry width="50" height="50" relative="1" as="geometry">
            <mxPoint x="1830" y="550" as="sourcePoint" />
            <mxPoint x="1880" y="500" as="targetPoint" />
          </mxGeometry>
        </mxCell>
        <mxCell id="BloUKUvgyLTRw8BuOScH-161" value="" style="endArrow=none;html=1;exitX=0.5;exitY=1;exitDx=0;exitDy=0;" edge="1" source="BloUKUvgyLTRw8BuOScH-159" parent="1">
          <mxGeometry width="50" height="50" relative="1" as="geometry">
            <mxPoint x="1540" y="560" as="sourcePoint" />
            <mxPoint x="1610" y="430" as="targetPoint" />
          </mxGeometry>
        </mxCell>
        <mxCell id="BloUKUvgyLTRw8BuOScH-162" value="26" style="text;html=1;strokeColor=none;fillColor=none;align=center;verticalAlign=middle;whiteSpace=wrap;rounded=0;" vertex="1" parent="1">
          <mxGeometry x="1590" y="400" width="40" height="20" as="geometry" />
        </mxCell>
        <mxCell id="BloUKUvgyLTRw8BuOScH-163" value="29.8" style="text;html=1;strokeColor=none;fillColor=none;align=center;verticalAlign=middle;whiteSpace=wrap;rounded=0;" vertex="1" parent="1">
          <mxGeometry x="1570" y="440" width="40" height="20" as="geometry" />
        </mxCell>
        <mxCell id="BloUKUvgyLTRw8BuOScH-164" value="29.8" style="text;html=1;strokeColor=none;fillColor=none;align=center;verticalAlign=middle;whiteSpace=wrap;rounded=0;" vertex="1" parent="1">
          <mxGeometry x="1610" y="440" width="40" height="20" as="geometry" />
        </mxCell>
        <mxCell id="BloUKUvgyLTRw8BuOScH-165" value="" style="ellipse;whiteSpace=wrap;html=1;aspect=fixed;fillColor=#ffe6cc;strokeColor=#d79b00;" vertex="1" parent="1">
          <mxGeometry x="1570" y="530" width="80" height="80" as="geometry" />
        </mxCell>
        <mxCell id="BloUKUvgyLTRw8BuOScH-166" value="" style="endArrow=none;html=1;exitX=0;exitY=0.5;exitDx=0;exitDy=0;entryX=1;entryY=0.5;entryDx=0;entryDy=0;" edge="1" source="BloUKUvgyLTRw8BuOScH-165" target="BloUKUvgyLTRw8BuOScH-165" parent="1">
          <mxGeometry width="50" height="50" relative="1" as="geometry">
            <mxPoint x="1830" y="690" as="sourcePoint" />
            <mxPoint x="1880" y="640" as="targetPoint" />
          </mxGeometry>
        </mxCell>
        <mxCell id="BloUKUvgyLTRw8BuOScH-167" value="" style="endArrow=none;html=1;exitX=0.5;exitY=1;exitDx=0;exitDy=0;" edge="1" source="BloUKUvgyLTRw8BuOScH-165" parent="1">
          <mxGeometry width="50" height="50" relative="1" as="geometry">
            <mxPoint x="1540" y="700" as="sourcePoint" />
            <mxPoint x="1610" y="570" as="targetPoint" />
          </mxGeometry>
        </mxCell>
        <mxCell id="BloUKUvgyLTRw8BuOScH-168" value="27" style="text;html=1;strokeColor=none;fillColor=none;align=center;verticalAlign=middle;whiteSpace=wrap;rounded=0;" vertex="1" parent="1">
          <mxGeometry x="1590" y="540" width="40" height="20" as="geometry" />
        </mxCell>
        <mxCell id="BloUKUvgyLTRw8BuOScH-169" value="31.8" style="text;html=1;strokeColor=none;fillColor=none;align=center;verticalAlign=middle;whiteSpace=wrap;rounded=0;" vertex="1" parent="1">
          <mxGeometry x="1570" y="580" width="40" height="20" as="geometry" />
        </mxCell>
        <mxCell id="BloUKUvgyLTRw8BuOScH-170" value="31.8" style="text;html=1;strokeColor=none;fillColor=none;align=center;verticalAlign=middle;whiteSpace=wrap;rounded=0;" vertex="1" parent="1">
          <mxGeometry x="1610" y="580" width="40" height="20" as="geometry" />
        </mxCell>
        <mxCell id="BloUKUvgyLTRw8BuOScH-171" value="" style="ellipse;whiteSpace=wrap;html=1;aspect=fixed;fillColor=#ffe6cc;strokeColor=#d79b00;" vertex="1" parent="1">
          <mxGeometry x="1570" y="680" width="80" height="80" as="geometry" />
        </mxCell>
        <mxCell id="BloUKUvgyLTRw8BuOScH-172" value="" style="endArrow=none;html=1;exitX=0;exitY=0.5;exitDx=0;exitDy=0;entryX=1;entryY=0.5;entryDx=0;entryDy=0;" edge="1" source="BloUKUvgyLTRw8BuOScH-171" target="BloUKUvgyLTRw8BuOScH-171" parent="1">
          <mxGeometry width="50" height="50" relative="1" as="geometry">
            <mxPoint x="1830" y="840" as="sourcePoint" />
            <mxPoint x="1880" y="790" as="targetPoint" />
          </mxGeometry>
        </mxCell>
        <mxCell id="BloUKUvgyLTRw8BuOScH-173" value="" style="endArrow=none;html=1;exitX=0.5;exitY=1;exitDx=0;exitDy=0;" edge="1" source="BloUKUvgyLTRw8BuOScH-171" parent="1">
          <mxGeometry width="50" height="50" relative="1" as="geometry">
            <mxPoint x="1540" y="850" as="sourcePoint" />
            <mxPoint x="1610" y="720" as="targetPoint" />
          </mxGeometry>
        </mxCell>
        <mxCell id="BloUKUvgyLTRw8BuOScH-174" value="28" style="text;html=1;strokeColor=none;fillColor=none;align=center;verticalAlign=middle;whiteSpace=wrap;rounded=0;" vertex="1" parent="1">
          <mxGeometry x="1590" y="690" width="40" height="20" as="geometry" />
        </mxCell>
        <mxCell id="BloUKUvgyLTRw8BuOScH-175" value="35.8" style="text;html=1;strokeColor=none;fillColor=none;align=center;verticalAlign=middle;whiteSpace=wrap;rounded=0;" vertex="1" parent="1">
          <mxGeometry x="1570" y="730" width="40" height="20" as="geometry" />
        </mxCell>
        <mxCell id="BloUKUvgyLTRw8BuOScH-176" value="35.8" style="text;html=1;strokeColor=none;fillColor=none;align=center;verticalAlign=middle;whiteSpace=wrap;rounded=0;" vertex="1" parent="1">
          <mxGeometry x="1610" y="730" width="40" height="20" as="geometry" />
        </mxCell>
        <mxCell id="BloUKUvgyLTRw8BuOScH-177" value="" style="endArrow=classic;html=1;exitX=1;exitY=0.5;exitDx=0;exitDy=0;strokeColor=#FF0000;fontColor=#FF0000;" edge="1" parent="1" source="BloUKUvgyLTRw8BuOScH-1">
          <mxGeometry relative="1" as="geometry">
            <mxPoint x="440" y="430" as="sourcePoint" />
            <mxPoint x="560" y="240" as="targetPoint" />
          </mxGeometry>
        </mxCell>
        <mxCell id="BloUKUvgyLTRw8BuOScH-178" value="&lt;font color=&quot;#FF0000&quot;&gt;A1&lt;/font&gt;" style="edgeLabel;resizable=0;html=1;align=center;verticalAlign=middle;" connectable="0" vertex="1" parent="BloUKUvgyLTRw8BuOScH-177">
          <mxGeometry relative="1" as="geometry" />
        </mxCell>
        <mxCell id="BloUKUvgyLTRw8BuOScH-179" value="&lt;div&gt;&lt;br&gt;&lt;/div&gt;&lt;div&gt;A2&lt;/div&gt;&lt;div&gt;&lt;br&gt;&lt;/div&gt;" style="endArrow=classic;html=1;exitX=1;exitY=0;exitDx=0;exitDy=0;strokeColor=#FF0000;fontColor=#FF0000;entryX=0;entryY=1;entryDx=0;entryDy=0;" edge="1" parent="1" source="BloUKUvgyLTRw8BuOScH-8" target="BloUKUvgyLTRw8BuOScH-15">
          <mxGeometry relative="1" as="geometry">
            <mxPoint x="520" y="150" as="sourcePoint" />
            <mxPoint x="610" y="150" as="targetPoint" />
          </mxGeometry>
        </mxCell>
        <mxCell id="BloUKUvgyLTRw8BuOScH-180" value="&lt;div&gt;&lt;br&gt;&lt;/div&gt;" style="edgeLabel;resizable=0;html=1;align=center;verticalAlign=middle;" connectable="0" vertex="1" parent="BloUKUvgyLTRw8BuOScH-179">
          <mxGeometry relative="1" as="geometry" />
        </mxCell>
        <mxCell id="BloUKUvgyLTRw8BuOScH-181" value="" style="endArrow=classic;html=1;entryX=0;entryY=0.5;entryDx=0;entryDy=0;exitX=1;exitY=0.5;exitDx=0;exitDy=0;" edge="1" parent="1" source="BloUKUvgyLTRw8BuOScH-8" target="BloUKUvgyLTRw8BuOScH-21">
          <mxGeometry relative="1" as="geometry">
            <mxPoint x="400" y="160" as="sourcePoint" />
            <mxPoint x="730" y="210" as="targetPoint" />
          </mxGeometry>
        </mxCell>
        <mxCell id="BloUKUvgyLTRw8BuOScH-182" value="A5" style="edgeLabel;resizable=0;html=1;align=center;verticalAlign=middle;" connectable="0" vertex="1" parent="BloUKUvgyLTRw8BuOScH-181">
          <mxGeometry relative="1" as="geometry" />
        </mxCell>
        <mxCell id="BloUKUvgyLTRw8BuOScH-185" value="" style="endArrow=classic;html=1;strokeColor=#000000;fontColor=#000000;exitX=0.5;exitY=1;exitDx=0;exitDy=0;entryX=0;entryY=0;entryDx=0;entryDy=0;" edge="1" parent="1" source="BloUKUvgyLTRw8BuOScH-8" target="BloUKUvgyLTRw8BuOScH-27">
          <mxGeometry relative="1" as="geometry">
            <mxPoint x="600" y="290" as="sourcePoint" />
            <mxPoint x="650" y="330" as="targetPoint" />
          </mxGeometry>
        </mxCell>
        <mxCell id="BloUKUvgyLTRw8BuOScH-186" value="A10" style="edgeLabel;resizable=0;html=1;align=center;verticalAlign=middle;" connectable="0" vertex="1" parent="BloUKUvgyLTRw8BuOScH-185">
          <mxGeometry relative="1" as="geometry" />
        </mxCell>
        <mxCell id="BloUKUvgyLTRw8BuOScH-187" value="" style="endArrow=classic;html=1;exitX=0.5;exitY=1;exitDx=0;exitDy=0;strokeColor=#FF0000;fontColor=#FF0000;entryX=0.5;entryY=0;entryDx=0;entryDy=0;" edge="1" parent="1" source="BloUKUvgyLTRw8BuOScH-15" target="BloUKUvgyLTRw8BuOScH-27">
          <mxGeometry relative="1" as="geometry">
            <mxPoint x="790" y="130" as="sourcePoint" />
            <mxPoint x="880" y="130" as="targetPoint" />
          </mxGeometry>
        </mxCell>
        <mxCell id="BloUKUvgyLTRw8BuOScH-188" value="&lt;font color=&quot;#FF0000&quot;&gt;A10&lt;/font&gt;" style="edgeLabel;resizable=0;html=1;align=center;verticalAlign=middle;" connectable="0" vertex="1" parent="BloUKUvgyLTRw8BuOScH-187">
          <mxGeometry relative="1" as="geometry" />
        </mxCell>
        <mxCell id="BloUKUvgyLTRw8BuOScH-189" value="" style="endArrow=classic;html=1;strokeColor=#000000;fontColor=#000000;exitX=1;exitY=0.5;exitDx=0;exitDy=0;entryX=0;entryY=0.5;entryDx=0;entryDy=0;" edge="1" parent="1" source="BloUKUvgyLTRw8BuOScH-15" target="BloUKUvgyLTRw8BuOScH-33">
          <mxGeometry relative="1" as="geometry">
            <mxPoint x="790" y="-40" as="sourcePoint" />
            <mxPoint x="890" y="-40" as="targetPoint" />
          </mxGeometry>
        </mxCell>
        <mxCell id="BloUKUvgyLTRw8BuOScH-190" value="A3" style="edgeLabel;resizable=0;html=1;align=center;verticalAlign=middle;" connectable="0" vertex="1" parent="BloUKUvgyLTRw8BuOScH-189">
          <mxGeometry relative="1" as="geometry" />
        </mxCell>
        <mxCell id="BloUKUvgyLTRw8BuOScH-191" value="" style="endArrow=classic;html=1;strokeColor=#000000;fontColor=#000000;exitX=1;exitY=0.5;exitDx=0;exitDy=0;entryX=0;entryY=0.5;entryDx=0;entryDy=0;" edge="1" parent="1" source="BloUKUvgyLTRw8BuOScH-33" target="BloUKUvgyLTRw8BuOScH-39">
          <mxGeometry relative="1" as="geometry">
            <mxPoint x="970" y="-50" as="sourcePoint" />
            <mxPoint x="1070" y="-50" as="targetPoint" />
          </mxGeometry>
        </mxCell>
        <mxCell id="BloUKUvgyLTRw8BuOScH-192" value="A4" style="edgeLabel;resizable=0;html=1;align=center;verticalAlign=middle;" connectable="0" vertex="1" parent="BloUKUvgyLTRw8BuOScH-191">
          <mxGeometry relative="1" as="geometry" />
        </mxCell>
        <mxCell id="BloUKUvgyLTRw8BuOScH-193" value="" style="endArrow=classic;html=1;strokeColor=#000000;fontColor=#000000;entryX=1;entryY=0;entryDx=0;entryDy=0;exitX=0;exitY=1;exitDx=0;exitDy=0;" edge="1" parent="1" source="BloUKUvgyLTRw8BuOScH-39" target="BloUKUvgyLTRw8BuOScH-21">
          <mxGeometry relative="1" as="geometry">
            <mxPoint x="880" y="140" as="sourcePoint" />
            <mxPoint x="980" y="140" as="targetPoint" />
          </mxGeometry>
        </mxCell>
        <mxCell id="BloUKUvgyLTRw8BuOScH-194" value="A5" style="edgeLabel;resizable=0;html=1;align=center;verticalAlign=middle;" connectable="0" vertex="1" parent="BloUKUvgyLTRw8BuOScH-193">
          <mxGeometry relative="1" as="geometry" />
        </mxCell>
        <mxCell id="BloUKUvgyLTRw8BuOScH-195" value="" style="endArrow=classic;html=1;strokeColor=#000000;fontColor=#000000;exitX=0.5;exitY=1;exitDx=0;exitDy=0;entryX=0.5;entryY=0;entryDx=0;entryDy=0;" edge="1" parent="1" source="BloUKUvgyLTRw8BuOScH-33" target="BloUKUvgyLTRw8BuOScH-45">
          <mxGeometry relative="1" as="geometry">
            <mxPoint x="870" y="190" as="sourcePoint" />
            <mxPoint x="970" y="190" as="targetPoint" />
          </mxGeometry>
        </mxCell>
        <mxCell id="BloUKUvgyLTRw8BuOScH-196" value="A6" style="edgeLabel;resizable=0;html=1;align=center;verticalAlign=middle;" connectable="0" vertex="1" parent="BloUKUvgyLTRw8BuOScH-195">
          <mxGeometry relative="1" as="geometry" />
        </mxCell>
        <mxCell id="BloUKUvgyLTRw8BuOScH-197" value="" style="endArrow=classic;html=1;strokeColor=#000000;fontColor=#000000;exitX=1;exitY=1;exitDx=0;exitDy=0;" edge="1" parent="1" source="BloUKUvgyLTRw8BuOScH-8">
          <mxGeometry relative="1" as="geometry">
            <mxPoint x="670" y="280" as="sourcePoint" />
            <mxPoint x="870" y="290" as="targetPoint" />
          </mxGeometry>
        </mxCell>
        <mxCell id="BloUKUvgyLTRw8BuOScH-198" value="A6" style="edgeLabel;resizable=0;html=1;align=center;verticalAlign=middle;" connectable="0" vertex="1" parent="BloUKUvgyLTRw8BuOScH-197">
          <mxGeometry relative="1" as="geometry" />
        </mxCell>
        <mxCell id="BloUKUvgyLTRw8BuOScH-199" value="" style="endArrow=classic;html=1;strokeColor=#000000;fontColor=#000000;exitX=1;exitY=0.5;exitDx=0;exitDy=0;entryX=0;entryY=0.5;entryDx=0;entryDy=0;" edge="1" parent="1" source="BloUKUvgyLTRw8BuOScH-21" target="BloUKUvgyLTRw8BuOScH-51">
          <mxGeometry relative="1" as="geometry">
            <mxPoint x="850" y="200" as="sourcePoint" />
            <mxPoint x="980" y="200" as="targetPoint" />
          </mxGeometry>
        </mxCell>
        <mxCell id="BloUKUvgyLTRw8BuOScH-200" value="A7" style="edgeLabel;resizable=0;html=1;align=center;verticalAlign=middle;" connectable="0" vertex="1" parent="BloUKUvgyLTRw8BuOScH-199">
          <mxGeometry relative="1" as="geometry" />
        </mxCell>
        <mxCell id="BloUKUvgyLTRw8BuOScH-201" value="" style="endArrow=classic;html=1;strokeColor=#000000;fontColor=#000000;exitX=1;exitY=0.5;exitDx=0;exitDy=0;entryX=0;entryY=0.5;entryDx=0;entryDy=0;" edge="1" parent="1" source="BloUKUvgyLTRw8BuOScH-45" target="BloUKUvgyLTRw8BuOScH-57">
          <mxGeometry relative="1" as="geometry">
            <mxPoint x="950" y="340" as="sourcePoint" />
            <mxPoint x="1050" y="340" as="targetPoint" />
          </mxGeometry>
        </mxCell>
        <mxCell id="BloUKUvgyLTRw8BuOScH-202" value="A8" style="edgeLabel;resizable=0;html=1;align=center;verticalAlign=middle;" connectable="0" vertex="1" parent="BloUKUvgyLTRw8BuOScH-201">
          <mxGeometry relative="1" as="geometry" />
        </mxCell>
        <mxCell id="BloUKUvgyLTRw8BuOScH-203" value="" style="endArrow=classic;html=1;strokeColor=#000000;fontColor=#000000;exitX=1;exitY=0.5;exitDx=0;exitDy=0;entryX=0;entryY=0;entryDx=0;entryDy=0;" edge="1" parent="1" source="BloUKUvgyLTRw8BuOScH-51" target="BloUKUvgyLTRw8BuOScH-63">
          <mxGeometry relative="1" as="geometry">
            <mxPoint x="1140" y="110" as="sourcePoint" />
            <mxPoint x="1240" y="110" as="targetPoint" />
          </mxGeometry>
        </mxCell>
        <mxCell id="BloUKUvgyLTRw8BuOScH-204" value="A9" style="edgeLabel;resizable=0;html=1;align=center;verticalAlign=middle;" connectable="0" vertex="1" parent="BloUKUvgyLTRw8BuOScH-203">
          <mxGeometry relative="1" as="geometry" />
        </mxCell>
        <mxCell id="BloUKUvgyLTRw8BuOScH-205" value="" style="endArrow=classic;html=1;strokeColor=#000000;fontColor=#000000;exitX=1;exitY=0.5;exitDx=0;exitDy=0;entryX=0;entryY=1;entryDx=0;entryDy=0;" edge="1" parent="1" source="BloUKUvgyLTRw8BuOScH-57" target="BloUKUvgyLTRw8BuOScH-63">
          <mxGeometry relative="1" as="geometry">
            <mxPoint x="1150" y="350" as="sourcePoint" />
            <mxPoint x="1250" y="350" as="targetPoint" />
          </mxGeometry>
        </mxCell>
        <mxCell id="BloUKUvgyLTRw8BuOScH-206" value="A9" style="edgeLabel;resizable=0;html=1;align=center;verticalAlign=middle;" connectable="0" vertex="1" parent="BloUKUvgyLTRw8BuOScH-205">
          <mxGeometry relative="1" as="geometry" />
        </mxCell>
        <mxCell id="BloUKUvgyLTRw8BuOScH-207" value="" style="endArrow=classic;html=1;strokeColor=#000000;fontColor=#000000;exitX=1;exitY=0.5;exitDx=0;exitDy=0;entryX=0;entryY=0;entryDx=0;entryDy=0;" edge="1" parent="1" source="BloUKUvgyLTRw8BuOScH-27" target="BloUKUvgyLTRw8BuOScH-69">
          <mxGeometry relative="1" as="geometry">
            <mxPoint x="810" y="360" as="sourcePoint" />
            <mxPoint x="910" y="360" as="targetPoint" />
          </mxGeometry>
        </mxCell>
        <mxCell id="BloUKUvgyLTRw8BuOScH-208" value="A11" style="edgeLabel;resizable=0;html=1;align=center;verticalAlign=middle;" connectable="0" vertex="1" parent="BloUKUvgyLTRw8BuOScH-207">
          <mxGeometry relative="1" as="geometry" />
        </mxCell>
        <mxCell id="BloUKUvgyLTRw8BuOScH-209" value="" style="endArrow=classic;html=1;strokeColor=#000000;fontColor=#000000;exitX=1;exitY=1;exitDx=0;exitDy=0;entryX=0;entryY=0;entryDx=0;entryDy=0;" edge="1" parent="1" source="BloUKUvgyLTRw8BuOScH-27" target="BloUKUvgyLTRw8BuOScH-75">
          <mxGeometry relative="1" as="geometry">
            <mxPoint x="750" y="510" as="sourcePoint" />
            <mxPoint x="850" y="510" as="targetPoint" />
          </mxGeometry>
        </mxCell>
        <mxCell id="BloUKUvgyLTRw8BuOScH-210" value="A12" style="edgeLabel;resizable=0;html=1;align=center;verticalAlign=middle;" connectable="0" vertex="1" parent="BloUKUvgyLTRw8BuOScH-209">
          <mxGeometry relative="1" as="geometry" />
        </mxCell>
        <mxCell id="BloUKUvgyLTRw8BuOScH-213" value="" style="endArrow=classic;html=1;strokeColor=#000000;fontColor=#000000;exitX=1;exitY=0.5;exitDx=0;exitDy=0;entryX=0;entryY=0;entryDx=0;entryDy=0;" edge="1" parent="1" source="BloUKUvgyLTRw8BuOScH-69" target="BloUKUvgyLTRw8BuOScH-87">
          <mxGeometry relative="1" as="geometry">
            <mxPoint x="960" y="420" as="sourcePoint" />
            <mxPoint x="1060" y="420" as="targetPoint" />
          </mxGeometry>
        </mxCell>
        <mxCell id="BloUKUvgyLTRw8BuOScH-214" value="A14" style="edgeLabel;resizable=0;html=1;align=center;verticalAlign=middle;" connectable="0" vertex="1" parent="BloUKUvgyLTRw8BuOScH-213">
          <mxGeometry relative="1" as="geometry" />
        </mxCell>
        <mxCell id="BloUKUvgyLTRw8BuOScH-215" value="" style="endArrow=classic;html=1;exitX=0.5;exitY=1;exitDx=0;exitDy=0;strokeColor=#FF0000;fontColor=#FF0000;entryX=0;entryY=0;entryDx=0;entryDy=0;" edge="1" parent="1" target="BloUKUvgyLTRw8BuOScH-81">
          <mxGeometry relative="1" as="geometry">
            <mxPoint x="720" y="415" as="sourcePoint" />
            <mxPoint x="821.7157287525379" y="656.7157287525379" as="targetPoint" />
          </mxGeometry>
        </mxCell>
        <mxCell id="BloUKUvgyLTRw8BuOScH-216" value="&lt;font color=&quot;#FF0000&quot;&gt;A13&lt;/font&gt;" style="edgeLabel;resizable=0;html=1;align=center;verticalAlign=middle;" connectable="0" vertex="1" parent="BloUKUvgyLTRw8BuOScH-215">
          <mxGeometry relative="1" as="geometry">
            <mxPoint as="offset" />
          </mxGeometry>
        </mxCell>
        <mxCell id="BloUKUvgyLTRw8BuOScH-217" value="" style="endArrow=classic;html=1;strokeColor=#000000;fontColor=#000000;exitX=1;exitY=0.5;exitDx=0;exitDy=0;entryX=0;entryY=1;entryDx=0;entryDy=0;" edge="1" parent="1" source="BloUKUvgyLTRw8BuOScH-75" target="BloUKUvgyLTRw8BuOScH-87">
          <mxGeometry relative="1" as="geometry">
            <mxPoint x="920" y="570" as="sourcePoint" />
            <mxPoint x="1020" y="570" as="targetPoint" />
          </mxGeometry>
        </mxCell>
        <mxCell id="BloUKUvgyLTRw8BuOScH-218" value="A14" style="edgeLabel;resizable=0;html=1;align=center;verticalAlign=middle;" connectable="0" vertex="1" parent="BloUKUvgyLTRw8BuOScH-217">
          <mxGeometry relative="1" as="geometry" />
        </mxCell>
        <mxCell id="BloUKUvgyLTRw8BuOScH-219" value="" style="endArrow=classic;html=1;exitX=1;exitY=0;exitDx=0;exitDy=0;strokeColor=#FF0000;fontColor=#FF0000;entryX=0.5;entryY=1;entryDx=0;entryDy=0;" edge="1" parent="1" source="BloUKUvgyLTRw8BuOScH-81" target="BloUKUvgyLTRw8BuOScH-87">
          <mxGeometry relative="1" as="geometry">
            <mxPoint x="970" y="590" as="sourcePoint" />
            <mxPoint x="1060" y="590" as="targetPoint" />
          </mxGeometry>
        </mxCell>
        <mxCell id="BloUKUvgyLTRw8BuOScH-220" value="&lt;font color=&quot;#FF0000&quot;&gt;A14&lt;/font&gt;" style="edgeLabel;resizable=0;html=1;align=center;verticalAlign=middle;" connectable="0" vertex="1" parent="BloUKUvgyLTRw8BuOScH-219">
          <mxGeometry relative="1" as="geometry" />
        </mxCell>
        <mxCell id="BloUKUvgyLTRw8BuOScH-221" value="" style="endArrow=classic;html=1;strokeColor=#000000;fontColor=#000000;exitX=1;exitY=1;exitDx=0;exitDy=0;entryX=0;entryY=0;entryDx=0;entryDy=0;" edge="1" parent="1" source="BloUKUvgyLTRw8BuOScH-69" target="BloUKUvgyLTRw8BuOScH-93">
          <mxGeometry relative="1" as="geometry">
            <mxPoint x="940" y="410" as="sourcePoint" />
            <mxPoint x="1040" y="410" as="targetPoint" />
          </mxGeometry>
        </mxCell>
        <mxCell id="BloUKUvgyLTRw8BuOScH-222" value="A15" style="edgeLabel;resizable=0;html=1;align=center;verticalAlign=middle;" connectable="0" vertex="1" parent="BloUKUvgyLTRw8BuOScH-221">
          <mxGeometry relative="1" as="geometry">
            <mxPoint y="4.81" as="offset" />
          </mxGeometry>
        </mxCell>
        <mxCell id="BloUKUvgyLTRw8BuOScH-223" value="" style="endArrow=classic;html=1;strokeColor=#000000;fontColor=#000000;exitX=1;exitY=0.5;exitDx=0;exitDy=0;entryX=0;entryY=0.5;entryDx=0;entryDy=0;" edge="1" parent="1" source="BloUKUvgyLTRw8BuOScH-75" target="BloUKUvgyLTRw8BuOScH-93">
          <mxGeometry relative="1" as="geometry">
            <mxPoint x="970" y="770" as="sourcePoint" />
            <mxPoint x="1070" y="770" as="targetPoint" />
          </mxGeometry>
        </mxCell>
        <mxCell id="BloUKUvgyLTRw8BuOScH-224" value="A15" style="edgeLabel;resizable=0;html=1;align=center;verticalAlign=middle;" connectable="0" vertex="1" parent="BloUKUvgyLTRw8BuOScH-223">
          <mxGeometry relative="1" as="geometry" />
        </mxCell>
        <mxCell id="BloUKUvgyLTRw8BuOScH-225" value="" style="endArrow=classic;html=1;exitX=1;exitY=0.5;exitDx=0;exitDy=0;strokeColor=#FF0000;fontColor=#FF0000;entryX=0;entryY=0.5;entryDx=0;entryDy=0;" edge="1" parent="1" source="BloUKUvgyLTRw8BuOScH-81" target="BloUKUvgyLTRw8BuOScH-93">
          <mxGeometry relative="1" as="geometry">
            <mxPoint x="940" y="750" as="sourcePoint" />
            <mxPoint x="1030" y="750" as="targetPoint" />
          </mxGeometry>
        </mxCell>
        <mxCell id="BloUKUvgyLTRw8BuOScH-226" value="&lt;font color=&quot;#FF0000&quot;&gt;A15&lt;/font&gt;" style="edgeLabel;resizable=0;html=1;align=center;verticalAlign=middle;" connectable="0" vertex="1" parent="BloUKUvgyLTRw8BuOScH-225">
          <mxGeometry relative="1" as="geometry" />
        </mxCell>
        <mxCell id="BloUKUvgyLTRw8BuOScH-227" value="" style="endArrow=classic;html=1;exitX=1;exitY=0.5;exitDx=0;exitDy=0;strokeColor=#FF0000;fontColor=#FF0000;entryX=0;entryY=0;entryDx=0;entryDy=0;" edge="1" parent="1" source="BloUKUvgyLTRw8BuOScH-87" target="BloUKUvgyLTRw8BuOScH-99">
          <mxGeometry relative="1" as="geometry">
            <mxPoint x="1100" y="420" as="sourcePoint" />
            <mxPoint x="1190" y="420" as="targetPoint" />
          </mxGeometry>
        </mxCell>
        <mxCell id="BloUKUvgyLTRw8BuOScH-228" value="&lt;font color=&quot;#FF0000&quot;&gt;A16&lt;/font&gt;" style="edgeLabel;resizable=0;html=1;align=center;verticalAlign=middle;" connectable="0" vertex="1" parent="BloUKUvgyLTRw8BuOScH-227">
          <mxGeometry relative="1" as="geometry" />
        </mxCell>
        <mxCell id="BloUKUvgyLTRw8BuOScH-229" value="" style="endArrow=classic;html=1;strokeColor=#000000;fontColor=#000000;exitX=1;exitY=1;exitDx=0;exitDy=0;entryX=0.5;entryY=1;entryDx=0;entryDy=0;" edge="1" parent="1" source="BloUKUvgyLTRw8BuOScH-81" target="BloUKUvgyLTRw8BuOScH-99">
          <mxGeometry relative="1" as="geometry">
            <mxPoint x="1070" y="740" as="sourcePoint" />
            <mxPoint x="1170" y="740" as="targetPoint" />
            <Array as="points">
              <mxPoint x="910" y="740" />
              <mxPoint x="1030" y="740" />
              <mxPoint x="1170" y="740" />
            </Array>
          </mxGeometry>
        </mxCell>
        <mxCell id="BloUKUvgyLTRw8BuOScH-230" value="A16" style="edgeLabel;resizable=0;html=1;align=center;verticalAlign=middle;" connectable="0" vertex="1" parent="BloUKUvgyLTRw8BuOScH-229">
          <mxGeometry relative="1" as="geometry" />
        </mxCell>
        <mxCell id="BloUKUvgyLTRw8BuOScH-231" value="" style="endArrow=classic;html=1;exitX=1;exitY=0.5;exitDx=0;exitDy=0;strokeColor=#FF0000;fontColor=#FF0000;entryX=0;entryY=0.5;entryDx=0;entryDy=0;" edge="1" parent="1" source="BloUKUvgyLTRw8BuOScH-93" target="BloUKUvgyLTRw8BuOScH-105">
          <mxGeometry relative="1" as="geometry">
            <mxPoint x="1140" y="660" as="sourcePoint" />
            <mxPoint x="1230" y="660" as="targetPoint" />
          </mxGeometry>
        </mxCell>
        <mxCell id="BloUKUvgyLTRw8BuOScH-232" value="&lt;font color=&quot;#FF0000&quot;&gt;A17&lt;/font&gt;" style="edgeLabel;resizable=0;html=1;align=center;verticalAlign=middle;" connectable="0" vertex="1" parent="BloUKUvgyLTRw8BuOScH-231">
          <mxGeometry relative="1" as="geometry" />
        </mxCell>
        <mxCell id="BloUKUvgyLTRw8BuOScH-233" value="" style="endArrow=classic;html=1;strokeColor=#000000;fontColor=#000000;exitX=0.5;exitY=1;exitDx=0;exitDy=0;entryX=0.5;entryY=1;entryDx=0;entryDy=0;" edge="1" parent="1" source="BloUKUvgyLTRw8BuOScH-81" target="BloUKUvgyLTRw8BuOScH-105">
          <mxGeometry relative="1" as="geometry">
            <mxPoint x="980" y="780" as="sourcePoint" />
            <mxPoint x="1080" y="780" as="targetPoint" />
            <Array as="points">
              <mxPoint x="870" y="760" />
              <mxPoint x="1300" y="760" />
            </Array>
          </mxGeometry>
        </mxCell>
        <mxCell id="BloUKUvgyLTRw8BuOScH-234" value="A17" style="edgeLabel;resizable=0;html=1;align=center;verticalAlign=middle;" connectable="0" vertex="1" parent="BloUKUvgyLTRw8BuOScH-233">
          <mxGeometry relative="1" as="geometry" />
        </mxCell>
        <mxCell id="BloUKUvgyLTRw8BuOScH-235" value="" style="endArrow=classic;html=1;exitX=1;exitY=0;exitDx=0;exitDy=0;strokeColor=#FF0000;fontColor=#FF0000;entryX=0;entryY=1;entryDx=0;entryDy=0;" edge="1" parent="1" source="BloUKUvgyLTRw8BuOScH-99" target="BloUKUvgyLTRw8BuOScH-111">
          <mxGeometry relative="1" as="geometry">
            <mxPoint x="1160" y="440" as="sourcePoint" />
            <mxPoint x="1250" y="440" as="targetPoint" />
          </mxGeometry>
        </mxCell>
        <mxCell id="BloUKUvgyLTRw8BuOScH-236" value="&lt;font color=&quot;#FF0000&quot;&gt;A18&lt;/font&gt;" style="edgeLabel;resizable=0;html=1;align=center;verticalAlign=middle;" connectable="0" vertex="1" parent="BloUKUvgyLTRw8BuOScH-235">
          <mxGeometry relative="1" as="geometry" />
        </mxCell>
        <mxCell id="BloUKUvgyLTRw8BuOScH-237" value="" style="endArrow=classic;html=1;exitX=0.5;exitY=0;exitDx=0;exitDy=0;strokeColor=#FF0000;fontColor=#FF0000;entryX=0.5;entryY=1;entryDx=0;entryDy=0;" edge="1" parent="1" source="BloUKUvgyLTRw8BuOScH-105" target="BloUKUvgyLTRw8BuOScH-111">
          <mxGeometry relative="1" as="geometry">
            <mxPoint x="1340" y="550" as="sourcePoint" />
            <mxPoint x="1430" y="550" as="targetPoint" />
          </mxGeometry>
        </mxCell>
        <mxCell id="BloUKUvgyLTRw8BuOScH-238" value="&lt;font color=&quot;#FF0000&quot;&gt;A18&lt;/font&gt;" style="edgeLabel;resizable=0;html=1;align=center;verticalAlign=middle;" connectable="0" vertex="1" parent="BloUKUvgyLTRw8BuOScH-237">
          <mxGeometry relative="1" as="geometry" />
        </mxCell>
        <mxCell id="BloUKUvgyLTRw8BuOScH-239" value="" style="endArrow=classic;html=1;strokeColor=#000000;fontColor=#000000;exitX=0.5;exitY=0;exitDx=0;exitDy=0;entryX=0;entryY=0.5;entryDx=0;entryDy=0;" edge="1" parent="1" source="BloUKUvgyLTRw8BuOScH-15" target="BloUKUvgyLTRw8BuOScH-117">
          <mxGeometry relative="1" as="geometry">
            <mxPoint x="800" y="-20" as="sourcePoint" />
            <mxPoint x="900" y="-20" as="targetPoint" />
            <Array as="points">
              <mxPoint x="780" y="-60" />
            </Array>
          </mxGeometry>
        </mxCell>
        <mxCell id="BloUKUvgyLTRw8BuOScH-240" value="A19" style="edgeLabel;resizable=0;html=1;align=center;verticalAlign=middle;" connectable="0" vertex="1" parent="BloUKUvgyLTRw8BuOScH-239">
          <mxGeometry relative="1" as="geometry" />
        </mxCell>
        <mxCell id="BloUKUvgyLTRw8BuOScH-241" value="" style="endArrow=classic;html=1;strokeColor=#000000;fontColor=#000000;exitX=0.5;exitY=0;exitDx=0;exitDy=0;entryX=0;entryY=0;entryDx=0;entryDy=0;" edge="1" parent="1" source="BloUKUvgyLTRw8BuOScH-8" target="BloUKUvgyLTRw8BuOScH-117">
          <mxGeometry relative="1" as="geometry">
            <mxPoint x="590" y="20" as="sourcePoint" />
            <mxPoint x="690" y="20" as="targetPoint" />
            <Array as="points">
              <mxPoint x="750" y="-88" />
            </Array>
          </mxGeometry>
        </mxCell>
        <mxCell id="BloUKUvgyLTRw8BuOScH-242" value="A19" style="edgeLabel;resizable=0;html=1;align=center;verticalAlign=middle;" connectable="0" vertex="1" parent="BloUKUvgyLTRw8BuOScH-241">
          <mxGeometry relative="1" as="geometry" />
        </mxCell>
        <mxCell id="BloUKUvgyLTRw8BuOScH-243" value="" style="endArrow=classic;html=1;strokeColor=#000000;fontColor=#000000;exitX=1;exitY=0.5;exitDx=0;exitDy=0;entryX=0;entryY=0.5;entryDx=0;entryDy=0;" edge="1" parent="1" source="BloUKUvgyLTRw8BuOScH-117" target="BloUKUvgyLTRw8BuOScH-123">
          <mxGeometry relative="1" as="geometry">
            <mxPoint x="1290" y="-160" as="sourcePoint" />
            <mxPoint x="1390" y="-160" as="targetPoint" />
          </mxGeometry>
        </mxCell>
        <mxCell id="BloUKUvgyLTRw8BuOScH-244" value="A20" style="edgeLabel;resizable=0;html=1;align=center;verticalAlign=middle;" connectable="0" vertex="1" parent="BloUKUvgyLTRw8BuOScH-243">
          <mxGeometry relative="1" as="geometry" />
        </mxCell>
        <mxCell id="BloUKUvgyLTRw8BuOScH-245" value="" style="endArrow=classic;html=1;strokeColor=#000000;fontColor=#000000;exitX=0.5;exitY=1;exitDx=0;exitDy=0;entryX=0.5;entryY=0;entryDx=0;entryDy=0;" edge="1" parent="1" source="BloUKUvgyLTRw8BuOScH-117" target="BloUKUvgyLTRw8BuOScH-129">
          <mxGeometry relative="1" as="geometry">
            <mxPoint x="1290" as="sourcePoint" />
            <mxPoint x="1390" as="targetPoint" />
          </mxGeometry>
        </mxCell>
        <mxCell id="BloUKUvgyLTRw8BuOScH-246" value="A21" style="edgeLabel;resizable=0;html=1;align=center;verticalAlign=middle;" connectable="0" vertex="1" parent="BloUKUvgyLTRw8BuOScH-245">
          <mxGeometry relative="1" as="geometry" />
        </mxCell>
        <mxCell id="BloUKUvgyLTRw8BuOScH-247" value="" style="endArrow=classic;html=1;strokeColor=#000000;fontColor=#000000;entryX=0;entryY=0.5;entryDx=0;entryDy=0;exitX=0.5;exitY=0;exitDx=0;exitDy=0;" edge="1" parent="1" source="BloUKUvgyLTRw8BuOScH-87" target="BloUKUvgyLTRw8BuOScH-129">
          <mxGeometry relative="1" as="geometry">
            <mxPoint x="1050" y="120" as="sourcePoint" />
            <mxPoint x="1150" y="120" as="targetPoint" />
            <Array as="points">
              <mxPoint x="1030" y="100" />
            </Array>
          </mxGeometry>
        </mxCell>
        <mxCell id="BloUKUvgyLTRw8BuOScH-248" value="A21" style="edgeLabel;resizable=0;html=1;align=center;verticalAlign=middle;" connectable="0" vertex="1" parent="BloUKUvgyLTRw8BuOScH-247">
          <mxGeometry relative="1" as="geometry">
            <mxPoint y="152.86" as="offset" />
          </mxGeometry>
        </mxCell>
        <mxCell id="BloUKUvgyLTRw8BuOScH-249" value="" style="endArrow=classic;html=1;strokeColor=#000000;fontColor=#000000;exitX=1;exitY=0;exitDx=0;exitDy=0;entryX=0;entryY=1;entryDx=0;entryDy=0;" edge="1" parent="1" source="BloUKUvgyLTRw8BuOScH-93" target="BloUKUvgyLTRw8BuOScH-129">
          <mxGeometry relative="1" as="geometry">
            <mxPoint x="1110" y="410" as="sourcePoint" />
            <mxPoint x="1210" y="410" as="targetPoint" />
            <Array as="points">
              <mxPoint x="1080" y="590" />
              <mxPoint x="1170" y="120" />
            </Array>
          </mxGeometry>
        </mxCell>
        <mxCell id="BloUKUvgyLTRw8BuOScH-250" value="A21" style="edgeLabel;resizable=0;html=1;align=center;verticalAlign=middle;" connectable="0" vertex="1" parent="BloUKUvgyLTRw8BuOScH-249">
          <mxGeometry relative="1" as="geometry" />
        </mxCell>
        <mxCell id="BloUKUvgyLTRw8BuOScH-251" value="" style="endArrow=classic;html=1;strokeColor=#000000;fontColor=#000000;exitX=1;exitY=1;exitDx=0;exitDy=0;entryX=0;entryY=0;entryDx=0;entryDy=0;" edge="1" parent="1" source="BloUKUvgyLTRw8BuOScH-117" target="BloUKUvgyLTRw8BuOScH-135">
          <mxGeometry relative="1" as="geometry">
            <mxPoint x="1310" y="10" as="sourcePoint" />
            <mxPoint x="1410" y="10" as="targetPoint" />
          </mxGeometry>
        </mxCell>
        <mxCell id="BloUKUvgyLTRw8BuOScH-252" value="A22" style="edgeLabel;resizable=0;html=1;align=center;verticalAlign=middle;" connectable="0" vertex="1" parent="BloUKUvgyLTRw8BuOScH-251">
          <mxGeometry relative="1" as="geometry" />
        </mxCell>
        <mxCell id="BloUKUvgyLTRw8BuOScH-253" value="" style="endArrow=classic;html=1;strokeColor=#000000;fontColor=#000000;entryX=0;entryY=0.5;entryDx=0;entryDy=0;exitX=1;exitY=0;exitDx=0;exitDy=0;" edge="1" parent="1" source="BloUKUvgyLTRw8BuOScH-51" target="BloUKUvgyLTRw8BuOScH-135">
          <mxGeometry relative="1" as="geometry">
            <mxPoint x="1250" y="170" as="sourcePoint" />
            <mxPoint x="1350" y="170" as="targetPoint" />
            <Array as="points">
              <mxPoint x="1300" y="130" />
            </Array>
          </mxGeometry>
        </mxCell>
        <mxCell id="BloUKUvgyLTRw8BuOScH-254" value="A22" style="edgeLabel;resizable=0;html=1;align=center;verticalAlign=middle;" connectable="0" vertex="1" parent="BloUKUvgyLTRw8BuOScH-253">
          <mxGeometry relative="1" as="geometry" />
        </mxCell>
        <mxCell id="BloUKUvgyLTRw8BuOScH-255" value="" style="endArrow=classic;html=1;strokeColor=#000000;fontColor=#000000;exitX=1;exitY=1;exitDx=0;exitDy=0;entryX=0;entryY=1;entryDx=0;entryDy=0;" edge="1" parent="1" source="BloUKUvgyLTRw8BuOScH-57" target="BloUKUvgyLTRw8BuOScH-135">
          <mxGeometry relative="1" as="geometry">
            <mxPoint x="1180" y="320" as="sourcePoint" />
            <mxPoint x="1280" y="320" as="targetPoint" />
            <Array as="points">
              <mxPoint x="1300" y="318" />
            </Array>
          </mxGeometry>
        </mxCell>
        <mxCell id="BloUKUvgyLTRw8BuOScH-256" value="A22" style="edgeLabel;resizable=0;html=1;align=center;verticalAlign=middle;" connectable="0" vertex="1" parent="BloUKUvgyLTRw8BuOScH-255">
          <mxGeometry relative="1" as="geometry" />
        </mxCell>
        <mxCell id="BloUKUvgyLTRw8BuOScH-257" value="" style="endArrow=classic;html=1;strokeColor=#000000;fontColor=#000000;exitX=1;exitY=0.5;exitDx=0;exitDy=0;entryX=0;entryY=0;entryDx=0;entryDy=0;" edge="1" parent="1" source="BloUKUvgyLTRw8BuOScH-123" target="BloUKUvgyLTRw8BuOScH-141">
          <mxGeometry relative="1" as="geometry">
            <mxPoint x="1510" y="-80" as="sourcePoint" />
            <mxPoint x="1610" y="-80" as="targetPoint" />
            <Array as="points" />
          </mxGeometry>
        </mxCell>
        <mxCell id="BloUKUvgyLTRw8BuOScH-258" value="A23" style="edgeLabel;resizable=0;html=1;align=center;verticalAlign=middle;" connectable="0" vertex="1" parent="BloUKUvgyLTRw8BuOScH-257">
          <mxGeometry relative="1" as="geometry" />
        </mxCell>
        <mxCell id="BloUKUvgyLTRw8BuOScH-259" value="" style="endArrow=classic;html=1;strokeColor=#000000;fontColor=#000000;exitX=1;exitY=0.5;exitDx=0;exitDy=0;entryX=0;entryY=1;entryDx=0;entryDy=0;" edge="1" parent="1" source="BloUKUvgyLTRw8BuOScH-135" target="BloUKUvgyLTRw8BuOScH-141">
          <mxGeometry relative="1" as="geometry">
            <mxPoint x="1490" y="100" as="sourcePoint" />
            <mxPoint x="1590" y="100" as="targetPoint" />
          </mxGeometry>
        </mxCell>
        <mxCell id="BloUKUvgyLTRw8BuOScH-260" value="A23" style="edgeLabel;resizable=0;html=1;align=center;verticalAlign=middle;" connectable="0" vertex="1" parent="BloUKUvgyLTRw8BuOScH-259">
          <mxGeometry relative="1" as="geometry" />
        </mxCell>
        <mxCell id="BloUKUvgyLTRw8BuOScH-261" value="" style="endArrow=classic;html=1;strokeColor=#000000;fontColor=#000000;exitX=1;exitY=0;exitDx=0;exitDy=0;entryX=0;entryY=0.5;entryDx=0;entryDy=0;" edge="1" parent="1" source="BloUKUvgyLTRw8BuOScH-129" target="BloUKUvgyLTRw8BuOScH-141">
          <mxGeometry relative="1" as="geometry">
            <mxPoint x="1380" y="20" as="sourcePoint" />
            <mxPoint x="1480" y="20" as="targetPoint" />
            <Array as="points">
              <mxPoint x="1360" y="30" />
            </Array>
          </mxGeometry>
        </mxCell>
        <mxCell id="BloUKUvgyLTRw8BuOScH-262" value="A23" style="edgeLabel;resizable=0;html=1;align=center;verticalAlign=middle;" connectable="0" vertex="1" parent="BloUKUvgyLTRw8BuOScH-261">
          <mxGeometry relative="1" as="geometry">
            <mxPoint x="97.01" as="offset" />
          </mxGeometry>
        </mxCell>
        <mxCell id="BloUKUvgyLTRw8BuOScH-263" value="" style="endArrow=classic;html=1;strokeColor=#000000;fontColor=#000000;exitX=0.5;exitY=1;exitDx=0;exitDy=0;entryX=0.5;entryY=0;entryDx=0;entryDy=0;" edge="1" parent="1" source="BloUKUvgyLTRw8BuOScH-141" target="BloUKUvgyLTRw8BuOScH-147">
          <mxGeometry relative="1" as="geometry">
            <mxPoint x="1400" y="190" as="sourcePoint" />
            <mxPoint x="1500" y="190" as="targetPoint" />
          </mxGeometry>
        </mxCell>
        <mxCell id="BloUKUvgyLTRw8BuOScH-264" value="A24" style="edgeLabel;resizable=0;html=1;align=center;verticalAlign=middle;" connectable="0" vertex="1" parent="BloUKUvgyLTRw8BuOScH-263">
          <mxGeometry relative="1" as="geometry" />
        </mxCell>
        <mxCell id="BloUKUvgyLTRw8BuOScH-265" value="" style="endArrow=classic;html=1;strokeColor=#000000;fontColor=#000000;exitX=1;exitY=0.5;exitDx=0;exitDy=0;entryX=0;entryY=0.5;entryDx=0;entryDy=0;" edge="1" parent="1" source="BloUKUvgyLTRw8BuOScH-63" target="BloUKUvgyLTRw8BuOScH-147">
          <mxGeometry relative="1" as="geometry">
            <mxPoint x="1360" y="230" as="sourcePoint" />
            <mxPoint x="1460" y="230" as="targetPoint" />
          </mxGeometry>
        </mxCell>
        <mxCell id="BloUKUvgyLTRw8BuOScH-266" value="A24" style="edgeLabel;resizable=0;html=1;align=center;verticalAlign=middle;" connectable="0" vertex="1" parent="BloUKUvgyLTRw8BuOScH-265">
          <mxGeometry relative="1" as="geometry" />
        </mxCell>
        <mxCell id="BloUKUvgyLTRw8BuOScH-267" value="" style="endArrow=classic;html=1;exitX=1;exitY=0;exitDx=0;exitDy=0;strokeColor=#FF0000;fontColor=#FF0000;entryX=0;entryY=1;entryDx=0;entryDy=0;" edge="1" parent="1" source="BloUKUvgyLTRw8BuOScH-111" target="BloUKUvgyLTRw8BuOScH-147">
          <mxGeometry relative="1" as="geometry">
            <mxPoint x="1370" y="380" as="sourcePoint" />
            <mxPoint x="1460" y="380" as="targetPoint" />
          </mxGeometry>
        </mxCell>
        <mxCell id="BloUKUvgyLTRw8BuOScH-268" value="&lt;font color=&quot;#FF0000&quot;&gt;A24&lt;/font&gt;" style="edgeLabel;resizable=0;html=1;align=center;verticalAlign=middle;" connectable="0" vertex="1" parent="BloUKUvgyLTRw8BuOScH-267">
          <mxGeometry relative="1" as="geometry" />
        </mxCell>
        <mxCell id="BloUKUvgyLTRw8BuOScH-269" value="" style="endArrow=classic;html=1;exitX=0.5;exitY=1;exitDx=0;exitDy=0;strokeColor=#FF0000;fontColor=#FF0000;entryX=0.5;entryY=0;entryDx=0;entryDy=0;" edge="1" parent="1" source="BloUKUvgyLTRw8BuOScH-147" target="BloUKUvgyLTRw8BuOScH-153">
          <mxGeometry relative="1" as="geometry">
            <mxPoint x="1570" y="250" as="sourcePoint" />
            <mxPoint x="1660" y="250" as="targetPoint" />
          </mxGeometry>
        </mxCell>
        <mxCell id="BloUKUvgyLTRw8BuOScH-270" value="&lt;font color=&quot;#FF0000&quot;&gt;A25&lt;/font&gt;" style="edgeLabel;resizable=0;html=1;align=center;verticalAlign=middle;" connectable="0" vertex="1" parent="BloUKUvgyLTRw8BuOScH-269">
          <mxGeometry relative="1" as="geometry" />
        </mxCell>
        <mxCell id="BloUKUvgyLTRw8BuOScH-271" value="" style="endArrow=classic;html=1;exitX=0.5;exitY=1;exitDx=0;exitDy=0;strokeColor=#FF0000;fontColor=#FF0000;entryX=0.5;entryY=0;entryDx=0;entryDy=0;" edge="1" parent="1" source="BloUKUvgyLTRw8BuOScH-153" target="BloUKUvgyLTRw8BuOScH-159">
          <mxGeometry relative="1" as="geometry">
            <mxPoint x="1570" y="370" as="sourcePoint" />
            <mxPoint x="1660" y="370" as="targetPoint" />
          </mxGeometry>
        </mxCell>
        <mxCell id="BloUKUvgyLTRw8BuOScH-272" value="&lt;font color=&quot;#FF0000&quot;&gt;A26&lt;/font&gt;" style="edgeLabel;resizable=0;html=1;align=center;verticalAlign=middle;" connectable="0" vertex="1" parent="BloUKUvgyLTRw8BuOScH-271">
          <mxGeometry relative="1" as="geometry" />
        </mxCell>
        <mxCell id="BloUKUvgyLTRw8BuOScH-273" value="" style="endArrow=classic;html=1;exitX=0.5;exitY=1;exitDx=0;exitDy=0;strokeColor=#FF0000;fontColor=#FF0000;entryX=0.5;entryY=0;entryDx=0;entryDy=0;" edge="1" parent="1" source="BloUKUvgyLTRw8BuOScH-159" target="BloUKUvgyLTRw8BuOScH-165">
          <mxGeometry relative="1" as="geometry">
            <mxPoint x="1540" y="510" as="sourcePoint" />
            <mxPoint x="1630" y="510" as="targetPoint" />
          </mxGeometry>
        </mxCell>
        <mxCell id="BloUKUvgyLTRw8BuOScH-274" value="&lt;font color=&quot;#FF0000&quot;&gt;A27&lt;/font&gt;" style="edgeLabel;resizable=0;html=1;align=center;verticalAlign=middle;" connectable="0" vertex="1" parent="BloUKUvgyLTRw8BuOScH-273">
          <mxGeometry relative="1" as="geometry" />
        </mxCell>
        <mxCell id="BloUKUvgyLTRw8BuOScH-275" value="" style="endArrow=classic;html=1;strokeColor=#FF0000;fontColor=#FF0000;exitX=0.5;exitY=1;exitDx=0;exitDy=0;" edge="1" parent="1" source="BloUKUvgyLTRw8BuOScH-165" target="BloUKUvgyLTRw8BuOScH-171">
          <mxGeometry relative="1" as="geometry">
            <mxPoint x="1610" y="610" as="sourcePoint" />
            <mxPoint x="1690" y="650" as="targetPoint" />
          </mxGeometry>
        </mxCell>
        <mxCell id="BloUKUvgyLTRw8BuOScH-276" value="&lt;font color=&quot;#FF0000&quot;&gt;A28&lt;/font&gt;" style="edgeLabel;resizable=0;html=1;align=center;verticalAlign=middle;" connectable="0" vertex="1" parent="BloUKUvgyLTRw8BuOScH-275">
          <mxGeometry relative="1" as="geometry" />
        </mxCell>
      </root>
    </mxGraphModel>
  </diagram>
</mxfile>
